<svg width="356" height="79" viewBox="0 0 356 79" fill="none" xmlns="http://www.w3.org/2000/svg">
<rect x="26.6875" y="4" width="301" height="8" rx="4" fill="#F2F3F7"/>
<rect x="29" y="4" width="289" height="8" rx="4" fill="#2872B3"/>
<circle cx="34.375" cy="8" r="8" fill="#2872B3"/>
<path fill-rule="evenodd" clip-rule="evenodd" d="M39.273 4.5555C39.4136 4.69615 39.4926 4.88688 39.4926 5.08575C39.4926 5.28463 39.4136 5.47536 39.273 5.616L33.6515 11.2375C33.5772 11.3118 33.489 11.3708 33.392 11.411C33.2949 11.4512 33.1908 11.4719 33.0858 11.4719C32.9807 11.4719 32.8766 11.4512 32.7796 11.411C32.6825 11.3708 32.5943 11.3118 32.52 11.2375L29.727 8.445C29.6554 8.37582 29.5982 8.29306 29.5589 8.20156C29.5196 8.11005 29.4989 8.01164 29.4981 7.91205C29.4972 7.81247 29.5162 7.71371 29.5539 7.62154C29.5916 7.52936 29.6473 7.44563 29.7177 7.37521C29.7881 7.30479 29.8719 7.2491 29.964 7.21139C30.0562 7.17368 30.155 7.1547 30.2546 7.15556C30.3541 7.15643 30.4526 7.17712 30.5441 7.21643C30.6356 7.25573 30.7183 7.31287 30.7875 7.3845L33.0855 9.6825L38.212 4.5555C38.2817 4.48581 38.3644 4.43052 38.4554 4.3928C38.5464 4.35508 38.644 4.33566 38.7425 4.33566C38.841 4.33566 38.9386 4.35508 39.0296 4.3928C39.1207 4.43052 39.2034 4.48581 39.273 4.5555Z" fill="#F2F3F7"/>
<circle cx="106.375" cy="8" r="8" fill="#2872B3"/>
<path fill-rule="evenodd" clip-rule="evenodd" d="M111.273 4.5555C111.414 4.69615 111.493 4.88688 111.493 5.08575C111.493 5.28463 111.414 5.47536 111.273 5.616L105.652 11.2375C105.577 11.3118 105.489 11.3708 105.392 11.411C105.295 11.4512 105.191 11.4719 105.086 11.4719C104.981 11.4719 104.877 11.4512 104.78 11.411C104.683 11.3708 104.594 11.3118 104.52 11.2375L101.727 8.445C101.655 8.37582 101.598 8.29306 101.559 8.20156C101.52 8.11005 101.499 8.01164 101.498 7.91205C101.497 7.81247 101.516 7.71371 101.554 7.62154C101.592 7.52936 101.647 7.44563 101.718 7.37521C101.788 7.30479 101.872 7.2491 101.964 7.21139C102.056 7.17368 102.155 7.1547 102.255 7.15556C102.354 7.15643 102.453 7.17712 102.544 7.21643C102.636 7.25573 102.718 7.31287 102.788 7.3845L105.086 9.6825L110.212 4.5555C110.282 4.48581 110.364 4.43052 110.455 4.3928C110.546 4.35508 110.644 4.33566 110.743 4.33566C110.841 4.33566 110.939 4.35508 111.03 4.3928C111.121 4.43052 111.203 4.48581 111.273 4.5555Z" fill="#F2F3F7"/>
<circle cx="178.375" cy="8" r="8" fill="#2872B3"/>
<path fill-rule="evenodd" clip-rule="evenodd" d="M183.273 4.5555C183.414 4.69615 183.493 4.88688 183.493 5.08575C183.493 5.28463 183.414 5.47536 183.273 5.616L177.652 11.2375C177.577 11.3118 177.489 11.3708 177.392 11.411C177.295 11.4512 177.191 11.4719 177.086 11.4719C176.981 11.4719 176.877 11.4512 176.78 11.411C176.683 11.3708 176.594 11.3118 176.52 11.2375L173.727 8.445C173.655 8.37582 173.598 8.29306 173.559 8.20156C173.52 8.11005 173.499 8.01164 173.498 7.91205C173.497 7.81247 173.516 7.71371 173.554 7.62154C173.592 7.52936 173.647 7.44563 173.718 7.37521C173.788 7.30479 173.872 7.2491 173.964 7.21139C174.056 7.17368 174.155 7.1547 174.255 7.15556C174.354 7.15643 174.453 7.17712 174.544 7.21643C174.636 7.25573 174.718 7.31287 174.788 7.3845L177.086 9.6825L182.212 4.5555C182.282 4.48581 182.364 4.43052 182.455 4.3928C182.546 4.35508 182.644 4.33566 182.743 4.33566C182.841 4.33566 182.939 4.35508 183.03 4.3928C183.121 4.43052 183.203 4.48581 183.273 4.5555Z" fill="#F2F3F7"/>
<circle cx="250.375" cy="8" r="8" fill="#2872B3"/>
<path fill-rule="evenodd" clip-rule="evenodd" d="M255.273 4.5555C255.414 4.69615 255.493 4.88688 255.493 5.08575C255.493 5.28463 255.414 5.47536 255.273 5.616L249.652 11.2375C249.577 11.3118 249.489 11.3708 249.392 11.411C249.295 11.4512 249.191 11.4719 249.086 11.4719C248.981 11.4719 248.877 11.4512 248.78 11.411C248.683 11.3708 248.594 11.3118 248.52 11.2375L245.727 8.445C245.655 8.37582 245.598 8.29306 245.559 8.20156C245.52 8.11005 245.499 8.01164 245.498 7.91205C245.497 7.81247 245.516 7.71371 245.554 7.62154C245.592 7.52936 245.647 7.44563 245.718 7.37521C245.788 7.30479 245.872 7.2491 245.964 7.21139C246.056 7.17368 246.155 7.1547 246.255 7.15556C246.354 7.15643 246.453 7.17712 246.544 7.21643C246.636 7.25573 246.718 7.31287 246.788 7.3845L249.086 9.6825L254.212 4.5555C254.282 4.48581 254.364 4.43052 254.455 4.3928C254.546 4.35508 254.644 4.33566 254.743 4.33566C254.841 4.33566 254.939 4.35508 255.03 4.3928C255.121 4.43052 255.203 4.48581 255.273 4.5555Z" fill="#F2F3F7"/>
<circle cx="322.375" cy="8" r="8" fill="#2872B3"/>
<path fill-rule="evenodd" clip-rule="evenodd" d="M327.273 4.5555C327.414 4.69615 327.493 4.88688 327.493 5.08575C327.493 5.28463 327.414 5.47536 327.273 5.616L321.652 11.2375C321.577 11.3118 321.489 11.3708 321.392 11.411C321.295 11.4512 321.191 11.4719 321.086 11.4719C320.981 11.4719 320.877 11.4512 320.78 11.411C320.683 11.3708 320.594 11.3118 320.52 11.2375L317.727 8.445C317.655 8.37582 317.598 8.29306 317.559 8.20156C317.52 8.11005 317.499 8.01164 317.498 7.91205C317.497 7.81247 317.516 7.71371 317.554 7.62154C317.592 7.52936 317.647 7.44563 317.718 7.37521C317.788 7.30479 317.872 7.2491 317.964 7.21139C318.056 7.17368 318.155 7.1547 318.255 7.15556C318.354 7.15643 318.453 7.17712 318.544 7.21643C318.636 7.25573 318.718 7.31287 318.788 7.3845L321.086 9.6825L326.212 4.5555C326.282 4.48581 326.364 4.43052 326.455 4.3928C326.546 4.35508 326.644 4.33566 326.743 4.33566C326.841 4.33566 326.939 4.35508 327.03 4.3928C327.121 4.43052 327.203 4.48581 327.273 4.5555Z" fill="#F2F3F7"/>
<path opacity="0.2" d="M30.25 48.875H27.75C27.5842 48.875 27.4253 48.8092 27.3081 48.6919C27.1908 48.5747 27.125 48.4158 27.125 48.25V35.75C27.125 35.5842 27.1908 35.4253 27.3081 35.3081C27.4253 35.1908 27.5842 35.125 27.75 35.125H30.25V48.875Z" fill="#2872B3"/>
<path d="M32.75 40.75H37.75" stroke="#2872B3" stroke-width="1.4" stroke-linecap="round" stroke-linejoin="round"/>
<path d="M32.75 43.25H37.75" stroke="#2872B3" stroke-width="1.4" stroke-linecap="round" stroke-linejoin="round"/>
<path d="M40.25 35.125H27.75C27.4048 35.125 27.125 35.4048 27.125 35.75V48.25C27.125 48.5952 27.4048 48.875 27.75 48.875H40.25C40.5952 48.875 40.875 48.5952 40.875 48.25V35.75C40.875 35.4048 40.5952 35.125 40.25 35.125Z" stroke="#2872B3" stroke-width="1.4" stroke-linecap="round" stroke-linejoin="round"/>
<path d="M30.25 35.125V48.875" stroke="#2872B3" stroke-width="1.2" stroke-linecap="round" stroke-linejoin="round"/>
<path d="M6.42578 68.3125H8.4375C8.86979 68.3125 9.23828 68.3776 9.54297 68.5078C9.84766 68.638 10.0807 68.8307 10.2422 69.0859C10.4062 69.3385 10.4883 69.651 10.4883 70.0234C10.4883 70.3073 10.4362 70.5573 10.332 70.7734C10.2279 70.9896 10.0807 71.1719 9.89062 71.3203C9.70052 71.4661 9.47396 71.5794 9.21094 71.6602L8.91406 71.8047H7.10547L7.09766 71.0273H8.45312C8.6875 71.0273 8.88281 70.9857 9.03906 70.9023C9.19531 70.819 9.3125 70.7057 9.39062 70.5625C9.47135 70.4167 9.51172 70.2526 9.51172 70.0703C9.51172 69.8724 9.47266 69.7005 9.39453 69.5547C9.31901 69.4062 9.20182 69.293 9.04297 69.2148C8.88411 69.1341 8.68229 69.0938 8.4375 69.0938H7.40625V74H6.42578V68.3125ZM9.67188 74L8.33594 71.4453L9.36328 71.4414L10.7188 73.9492V74H9.67188ZM13.2344 74.0781C12.9219 74.0781 12.6393 74.0273 12.3867 73.9258C12.1367 73.8216 11.9232 73.6771 11.7461 73.4922C11.5716 73.3073 11.4375 73.0898 11.3438 72.8398C11.25 72.5898 11.2031 72.3203 11.2031 72.0312V71.875C11.2031 71.5443 11.2513 71.2448 11.3477 70.9766C11.444 70.7083 11.5781 70.4792 11.75 70.2891C11.9219 70.0964 12.125 69.9492 12.3594 69.8477C12.5938 69.7461 12.8477 69.6953 13.1211 69.6953C13.4232 69.6953 13.6875 69.7461 13.9141 69.8477C14.1406 69.9492 14.3281 70.0924 14.4766 70.2773C14.6276 70.4596 14.7396 70.6771 14.8125 70.9297C14.888 71.1823 14.9258 71.4609 14.9258 71.7656V72.168H11.6602V71.4922H13.9961V71.418C13.9909 71.2487 13.957 71.0898 13.8945 70.9414C13.8346 70.793 13.7422 70.6732 13.6172 70.582C13.4922 70.4909 13.3255 70.4453 13.1172 70.4453C12.9609 70.4453 12.8216 70.4792 12.6992 70.5469C12.5794 70.612 12.4792 70.707 12.3984 70.832C12.3177 70.957 12.2552 71.1081 12.2109 71.2852C12.1693 71.4596 12.1484 71.6562 12.1484 71.875V72.0312C12.1484 72.2161 12.1732 72.388 12.2227 72.5469C12.2747 72.7031 12.3503 72.8398 12.4492 72.957C12.5482 73.0742 12.668 73.1667 12.8086 73.2344C12.9492 73.2995 13.1094 73.332 13.2891 73.332C13.5156 73.332 13.7174 73.2865 13.8945 73.1953C14.0716 73.1042 14.2253 72.9753 14.3555 72.8086L14.8516 73.2891C14.7604 73.4219 14.6419 73.5495 14.4961 73.6719C14.3503 73.7917 14.1719 73.8893 13.9609 73.9648C13.7526 74.0404 13.5104 74.0781 13.2344 74.0781ZM16.6055 70.5859V75.625H15.6641V69.7734H16.5312L16.6055 70.5859ZM19.3594 71.8477V71.9297C19.3594 72.237 19.3229 72.5221 19.25 72.7852C19.1797 73.0456 19.0742 73.2734 18.9336 73.4688C18.7956 73.6615 18.625 73.8112 18.4219 73.918C18.2188 74.0247 17.9844 74.0781 17.7188 74.0781C17.4557 74.0781 17.2253 74.0299 17.0273 73.9336C16.832 73.8346 16.6667 73.6953 16.5312 73.5156C16.3958 73.3359 16.2865 73.125 16.2031 72.8828C16.1224 72.638 16.0651 72.3698 16.0312 72.0781V71.7617C16.0651 71.4518 16.1224 71.1706 16.2031 70.918C16.2865 70.6654 16.3958 70.4479 16.5312 70.2656C16.6667 70.0833 16.832 69.9427 17.0273 69.8438C17.2227 69.7448 17.4505 69.6953 17.7109 69.6953C17.9766 69.6953 18.2122 69.7474 18.418 69.8516C18.6237 69.9531 18.7969 70.099 18.9375 70.2891C19.0781 70.4766 19.1836 70.7031 19.2539 70.9688C19.3242 71.2318 19.3594 71.5247 19.3594 71.8477ZM18.418 71.9297V71.8477C18.418 71.6523 18.3997 71.4714 18.3633 71.3047C18.3268 71.1354 18.2695 70.987 18.1914 70.8594C18.1133 70.7318 18.013 70.6328 17.8906 70.5625C17.7708 70.4896 17.6263 70.4531 17.457 70.4531C17.2904 70.4531 17.1471 70.4818 17.0273 70.5391C16.9076 70.5938 16.8073 70.6706 16.7266 70.7695C16.6458 70.8685 16.5833 70.9844 16.5391 71.1172C16.4948 71.2474 16.4635 71.3893 16.4453 71.543V72.3008C16.4766 72.4883 16.5299 72.6602 16.6055 72.8164C16.681 72.9727 16.7878 73.0977 16.9258 73.1914C17.0664 73.2826 17.2461 73.3281 17.4648 73.3281C17.6341 73.3281 17.7786 73.2917 17.8984 73.2188C18.0182 73.1458 18.1159 73.0456 18.1914 72.918C18.2695 72.7878 18.3268 72.638 18.3633 72.4688C18.3997 72.2995 18.418 72.1198 18.418 71.9297ZM19.9805 71.9336V71.8438C19.9805 71.5391 20.0247 71.2565 20.1133 70.9961C20.2018 70.7331 20.3294 70.5052 20.4961 70.3125C20.6654 70.1172 20.8711 69.9661 21.1133 69.8594C21.3581 69.75 21.6341 69.6953 21.9414 69.6953C22.2513 69.6953 22.5273 69.75 22.7695 69.8594C23.0143 69.9661 23.2214 70.1172 23.3906 70.3125C23.5599 70.5052 23.6888 70.7331 23.7773 70.9961C23.8659 71.2565 23.9102 71.5391 23.9102 71.8438V71.9336C23.9102 72.2383 23.8659 72.5208 23.7773 72.7812C23.6888 73.0417 23.5599 73.2695 23.3906 73.4648C23.2214 73.6576 23.0156 73.8086 22.7734 73.918C22.5312 74.0247 22.2565 74.0781 21.9492 74.0781C21.6393 74.0781 21.362 74.0247 21.1172 73.918C20.875 73.8086 20.6693 73.6576 20.5 73.4648C20.3307 73.2695 20.2018 73.0417 20.1133 72.7812C20.0247 72.5208 19.9805 72.2383 19.9805 71.9336ZM20.9219 71.8438V71.9336C20.9219 72.1237 20.9414 72.3034 20.9805 72.4727C21.0195 72.6419 21.0807 72.7904 21.1641 72.918C21.2474 73.0456 21.3542 73.1458 21.4844 73.2188C21.6146 73.2917 21.7695 73.3281 21.9492 73.3281C22.1237 73.3281 22.2747 73.2917 22.4023 73.2188C22.5326 73.1458 22.6393 73.0456 22.7227 72.918C22.806 72.7904 22.8672 72.6419 22.9062 72.4727C22.9479 72.3034 22.9688 72.1237 22.9688 71.9336V71.8438C22.9688 71.6562 22.9479 71.4792 22.9062 71.3125C22.8672 71.1432 22.8047 70.9935 22.7188 70.8633C22.6354 70.7331 22.5286 70.6315 22.3984 70.5586C22.2708 70.4831 22.1185 70.4453 21.9414 70.4453C21.7643 70.4453 21.6107 70.4831 21.4805 70.5586C21.3529 70.6315 21.2474 70.7331 21.1641 70.8633C21.0807 70.9935 21.0195 71.1432 20.9805 71.3125C20.9414 71.4792 20.9219 71.6562 20.9219 71.8438ZM25.6445 70.5781V74H24.7031V69.7734H25.6016L25.6445 70.5781ZM26.9375 69.7461L26.9297 70.6211C26.8724 70.6107 26.8099 70.6029 26.7422 70.5977C26.6771 70.5924 26.612 70.5898 26.5469 70.5898C26.3854 70.5898 26.2435 70.6133 26.1211 70.6602C25.9987 70.7044 25.8958 70.7695 25.8125 70.8555C25.7318 70.9388 25.6693 71.0404 25.625 71.1602C25.5807 71.2799 25.5547 71.4141 25.5469 71.5625L25.332 71.5781C25.332 71.3125 25.3581 71.0664 25.4102 70.8398C25.4622 70.6133 25.5404 70.4141 25.6445 70.2422C25.7513 70.0703 25.8841 69.9362 26.043 69.8398C26.2044 69.7435 26.3906 69.6953 26.6016 69.6953C26.6589 69.6953 26.7201 69.7005 26.7852 69.7109C26.8529 69.7214 26.9036 69.7331 26.9375 69.7461ZM29.6602 69.7734V70.4609H27.2773V69.7734H29.6602ZM27.9648 68.7383H28.9062V72.832C28.9062 72.9622 28.9245 73.0625 28.9609 73.1328C29 73.2005 29.0534 73.2461 29.1211 73.2695C29.1888 73.293 29.2682 73.3047 29.3594 73.3047C29.4245 73.3047 29.487 73.3008 29.5469 73.293C29.6068 73.2852 29.6549 73.2773 29.6914 73.2695L29.6953 73.9883C29.6172 74.0117 29.526 74.0326 29.4219 74.0508C29.3203 74.069 29.2031 74.0781 29.0703 74.0781C28.8542 74.0781 28.6628 74.0404 28.4961 73.9648C28.3294 73.8867 28.1992 73.7604 28.1055 73.5859C28.0117 73.4115 27.9648 73.1797 27.9648 72.8906V68.7383ZM33.3242 70.5781V74H32.3828V69.7734H33.2812L33.3242 70.5781ZM34.6172 69.7461L34.6094 70.6211C34.5521 70.6107 34.4896 70.6029 34.4219 70.5977C34.3568 70.5924 34.2917 70.5898 34.2266 70.5898C34.0651 70.5898 33.9232 70.6133 33.8008 70.6602C33.6784 70.7044 33.5755 70.7695 33.4922 70.8555C33.4115 70.9388 33.349 71.0404 33.3047 71.1602C33.2604 71.2799 33.2344 71.4141 33.2266 71.5625L33.0117 71.5781C33.0117 71.3125 33.0378 71.0664 33.0898 70.8398C33.1419 70.6133 33.2201 70.4141 33.3242 70.2422C33.431 70.0703 33.5638 69.9362 33.7227 69.8398C33.8841 69.7435 34.0703 69.6953 34.2812 69.6953C34.3385 69.6953 34.3997 69.7005 34.4648 69.7109C34.5326 69.7214 34.5833 69.7331 34.6172 69.7461ZM36.9922 74.0781C36.6797 74.0781 36.3971 74.0273 36.1445 73.9258C35.8945 73.8216 35.681 73.6771 35.5039 73.4922C35.3294 73.3073 35.1953 73.0898 35.1016 72.8398C35.0078 72.5898 34.9609 72.3203 34.9609 72.0312V71.875C34.9609 71.5443 35.0091 71.2448 35.1055 70.9766C35.2018 70.7083 35.3359 70.4792 35.5078 70.2891C35.6797 70.0964 35.8828 69.9492 36.1172 69.8477C36.3516 69.7461 36.6055 69.6953 36.8789 69.6953C37.181 69.6953 37.4453 69.7461 37.6719 69.8477C37.8984 69.9492 38.0859 70.0924 38.2344 70.2773C38.3854 70.4596 38.4974 70.6771 38.5703 70.9297C38.6458 71.1823 38.6836 71.4609 38.6836 71.7656V72.168H35.418V71.4922H37.7539V71.418C37.7487 71.2487 37.7148 71.0898 37.6523 70.9414C37.5924 70.793 37.5 70.6732 37.375 70.582C37.25 70.4909 37.0833 70.4453 36.875 70.4453C36.7188 70.4453 36.5794 70.4792 36.457 70.5469C36.3372 70.612 36.237 70.707 36.1562 70.832C36.0755 70.957 36.013 71.1081 35.9688 71.2852C35.9271 71.4596 35.9062 71.6562 35.9062 71.875V72.0312C35.9062 72.2161 35.931 72.388 35.9805 72.5469C36.0326 72.7031 36.1081 72.8398 36.207 72.957C36.306 73.0742 36.4258 73.1667 36.5664 73.2344C36.707 73.2995 36.8672 73.332 37.0469 73.332C37.2734 73.332 37.4753 73.2865 37.6523 73.1953C37.8294 73.1042 37.9831 72.9753 38.1133 72.8086L38.6094 73.2891C38.5182 73.4219 38.3997 73.5495 38.2539 73.6719C38.1081 73.7917 37.9297 73.8893 37.7188 73.9648C37.5104 74.0404 37.2682 74.0781 36.9922 74.0781ZM41.1445 73.3281C41.2982 73.3281 41.4362 73.2982 41.5586 73.2383C41.6836 73.1758 41.7839 73.0898 41.8594 72.9805C41.9375 72.8711 41.9805 72.7448 41.9883 72.6016H42.875C42.8698 72.875 42.7891 73.1237 42.6328 73.3477C42.4766 73.5716 42.2695 73.75 42.0117 73.8828C41.7539 74.013 41.4688 74.0781 41.1562 74.0781C40.8333 74.0781 40.5521 74.0234 40.3125 73.9141C40.0729 73.8021 39.8737 73.6484 39.7148 73.4531C39.556 73.2578 39.4362 73.0326 39.3555 72.7773C39.2773 72.5221 39.2383 72.2487 39.2383 71.957V71.8203C39.2383 71.5286 39.2773 71.2552 39.3555 71C39.4362 70.7422 39.556 70.5156 39.7148 70.3203C39.8737 70.125 40.0729 69.9727 40.3125 69.8633C40.5521 69.7513 40.832 69.6953 41.1523 69.6953C41.4909 69.6953 41.7878 69.763 42.043 69.8984C42.2982 70.0312 42.4987 70.2174 42.6445 70.457C42.793 70.694 42.8698 70.9701 42.875 71.2852H41.9883C41.9805 71.1289 41.9414 70.9883 41.8711 70.8633C41.8034 70.7357 41.707 70.6341 41.582 70.5586C41.4596 70.4831 41.3125 70.4453 41.1406 70.4453C40.9505 70.4453 40.793 70.4844 40.668 70.5625C40.543 70.638 40.4453 70.7422 40.375 70.875C40.3047 71.0052 40.2539 71.1523 40.2227 71.3164C40.194 71.4779 40.1797 71.6458 40.1797 71.8203V71.957C40.1797 72.1315 40.194 72.3008 40.2227 72.4648C40.2513 72.6289 40.3008 72.776 40.3711 72.9062C40.444 73.0339 40.543 73.1367 40.668 73.2148C40.793 73.2904 40.9518 73.3281 41.1445 73.3281ZM45.4609 74.0781C45.1484 74.0781 44.8659 74.0273 44.6133 73.9258C44.3633 73.8216 44.1497 73.6771 43.9727 73.4922C43.7982 73.3073 43.6641 73.0898 43.5703 72.8398C43.4766 72.5898 43.4297 72.3203 43.4297 72.0312V71.875C43.4297 71.5443 43.4779 71.2448 43.5742 70.9766C43.6706 70.7083 43.8047 70.4792 43.9766 70.2891C44.1484 70.0964 44.3516 69.9492 44.5859 69.8477C44.8203 69.7461 45.0742 69.6953 45.3477 69.6953C45.6497 69.6953 45.9141 69.7461 46.1406 69.8477C46.3672 69.9492 46.5547 70.0924 46.7031 70.2773C46.8542 70.4596 46.9661 70.6771 47.0391 70.9297C47.1146 71.1823 47.1523 71.4609 47.1523 71.7656V72.168H43.8867V71.4922H46.2227V71.418C46.2174 71.2487 46.1836 71.0898 46.1211 70.9414C46.0612 70.793 45.9688 70.6732 45.8438 70.582C45.7188 70.4909 45.5521 70.4453 45.3438 70.4453C45.1875 70.4453 45.0482 70.4792 44.9258 70.5469C44.806 70.612 44.7057 70.707 44.625 70.832C44.5443 70.957 44.4818 71.1081 44.4375 71.2852C44.3958 71.4596 44.375 71.6562 44.375 71.875V72.0312C44.375 72.2161 44.3997 72.388 44.4492 72.5469C44.5013 72.7031 44.5768 72.8398 44.6758 72.957C44.7747 73.0742 44.8945 73.1667 45.0352 73.2344C45.1758 73.2995 45.3359 73.332 45.5156 73.332C45.7422 73.332 45.944 73.2865 46.1211 73.1953C46.2982 73.1042 46.4518 72.9753 46.582 72.8086L47.0781 73.2891C46.987 73.4219 46.8685 73.5495 46.7227 73.6719C46.5768 73.7917 46.3984 73.8893 46.1875 73.9648C45.9792 74.0404 45.737 74.0781 45.4609 74.0781ZM48.8945 69.7734V74H47.9492V69.7734H48.8945ZM47.8867 68.6641C47.8867 68.5208 47.9336 68.4023 48.0273 68.3086C48.1237 68.2122 48.2565 68.1641 48.4258 68.1641C48.5924 68.1641 48.724 68.2122 48.8203 68.3086C48.9167 68.4023 48.9648 68.5208 48.9648 68.6641C48.9648 68.8047 48.9167 68.9219 48.8203 69.0156C48.724 69.1094 48.5924 69.1562 48.4258 69.1562C48.2565 69.1562 48.1237 69.1094 48.0273 69.0156C47.9336 68.9219 47.8867 68.8047 47.8867 68.6641ZM51.3008 73.2539L52.3359 69.7734H53.3125L51.8438 74H51.2344L51.3008 73.2539ZM50.5078 69.7734L51.5625 73.2695L51.6133 74H51.0039L49.5273 69.7734H50.5078ZM55.7031 74.0781C55.3906 74.0781 55.1081 74.0273 54.8555 73.9258C54.6055 73.8216 54.3919 73.6771 54.2148 73.4922C54.0404 73.3073 53.9062 73.0898 53.8125 72.8398C53.7188 72.5898 53.6719 72.3203 53.6719 72.0312V71.875C53.6719 71.5443 53.7201 71.2448 53.8164 70.9766C53.9128 70.7083 54.0469 70.4792 54.2188 70.2891C54.3906 70.0964 54.5938 69.9492 54.8281 69.8477C55.0625 69.7461 55.3164 69.6953 55.5898 69.6953C55.8919 69.6953 56.1562 69.7461 56.3828 69.8477C56.6094 69.9492 56.7969 70.0924 56.9453 70.2773C57.0964 70.4596 57.2083 70.6771 57.2812 70.9297C57.3568 71.1823 57.3945 71.4609 57.3945 71.7656V72.168H54.1289V71.4922H56.4648V71.418C56.4596 71.2487 56.4258 71.0898 56.3633 70.9414C56.3034 70.793 56.2109 70.6732 56.0859 70.582C55.9609 70.4909 55.7943 70.4453 55.5859 70.4453C55.4297 70.4453 55.2904 70.4792 55.168 70.5469C55.0482 70.612 54.9479 70.707 54.8672 70.832C54.7865 70.957 54.724 71.1081 54.6797 71.2852C54.638 71.4596 54.6172 71.6562 54.6172 71.875V72.0312C54.6172 72.2161 54.6419 72.388 54.6914 72.5469C54.7435 72.7031 54.819 72.8398 54.918 72.957C55.0169 73.0742 55.1367 73.1667 55.2773 73.2344C55.418 73.2995 55.5781 73.332 55.7578 73.332C55.9844 73.332 56.1862 73.2865 56.3633 73.1953C56.5404 73.1042 56.694 72.9753 56.8242 72.8086L57.3203 73.2891C57.2292 73.4219 57.1107 73.5495 56.9648 73.6719C56.819 73.7917 56.6406 73.8893 56.4297 73.9648C56.2214 74.0404 55.9792 74.0781 55.7031 74.0781ZM60.707 73.125V68H61.6523V74H60.7969L60.707 73.125ZM57.957 71.9336V71.8516C57.957 71.5312 57.9948 71.2396 58.0703 70.9766C58.1458 70.7109 58.2552 70.4831 58.3984 70.293C58.5417 70.1003 58.7161 69.9531 58.9219 69.8516C59.1276 69.7474 59.3594 69.6953 59.6172 69.6953C59.8724 69.6953 60.0964 69.7448 60.2891 69.8438C60.4818 69.9427 60.6458 70.0846 60.7812 70.2695C60.9167 70.4518 61.0247 70.6706 61.1055 70.9258C61.1862 71.1784 61.2435 71.4596 61.2773 71.7695V72.0312C61.2435 72.3333 61.1862 72.6094 61.1055 72.8594C61.0247 73.1094 60.9167 73.3255 60.7812 73.5078C60.6458 73.6901 60.4805 73.8307 60.2852 73.9297C60.0924 74.0286 59.8672 74.0781 59.6094 74.0781C59.3542 74.0781 59.1237 74.0247 58.918 73.918C58.7148 73.8112 58.5417 73.6615 58.3984 73.4688C58.2552 73.276 58.1458 73.0495 58.0703 72.7891C57.9948 72.526 57.957 72.2409 57.957 71.9336ZM58.8984 71.8516V71.9336C58.8984 72.1263 58.9154 72.306 58.9492 72.4727C58.9857 72.6393 59.0417 72.7865 59.1172 72.9141C59.1927 73.0391 59.2904 73.138 59.4102 73.2109C59.5326 73.2812 59.6784 73.3164 59.8477 73.3164C60.0612 73.3164 60.237 73.2695 60.375 73.1758C60.513 73.082 60.6211 72.9557 60.6992 72.7969C60.7799 72.6354 60.8346 72.4557 60.8633 72.2578V71.5508C60.8477 71.3971 60.8151 71.2539 60.7656 71.1211C60.7188 70.9883 60.6549 70.8724 60.5742 70.7734C60.4935 70.6719 60.3932 70.5938 60.2734 70.5391C60.1562 70.4818 60.0169 70.4531 59.8555 70.4531C59.6836 70.4531 59.5378 70.4896 59.418 70.5625C59.2982 70.6354 59.1992 70.7357 59.1211 70.8633C59.0456 70.9909 58.9896 71.1393 58.9531 71.3086C58.9167 71.4779 58.8984 71.6589 58.8984 71.8516Z" fill="#343434"/>
<path d="M104.967 43.0333C103.017 41.0833 103.017 37.9167 104.967 35.9583C106.917 34.0083 110.083 34.0083 112.042 35.9583C113.992 37.9083 113.992 41.075 112.042 43.0333C110.092 44.9833 106.925 44.9833 104.967 43.0333Z" fill="#2872B3" fill-opacity="0.2" stroke="#2872B3" stroke-width="1.4" stroke-linecap="round" stroke-linejoin="round"/>
<path d="M104.75 43.25L98.5 49.5" stroke="#2872B3" stroke-width="1.4" stroke-linecap="round" stroke-linejoin="round"/>
<path d="M86.1562 73.0039V69.7734H87.1016V74H86.2109L86.1562 73.0039ZM86.2891 72.125L86.6055 72.1172C86.6055 72.401 86.5742 72.6628 86.5117 72.9023C86.4492 73.1393 86.3529 73.3464 86.2227 73.5234C86.0924 73.6979 85.9258 73.8346 85.7227 73.9336C85.5195 74.0299 85.276 74.0781 84.9922 74.0781C84.7865 74.0781 84.5977 74.0482 84.4258 73.9883C84.2539 73.9284 84.1055 73.8359 83.9805 73.7109C83.8581 73.5859 83.763 73.4232 83.6953 73.2227C83.6276 73.0221 83.5938 72.7826 83.5938 72.5039V69.7734H84.5352V72.5117C84.5352 72.6654 84.5534 72.7943 84.5898 72.8984C84.6263 73 84.6758 73.082 84.7383 73.1445C84.8008 73.207 84.8737 73.2513 84.957 73.2773C85.0404 73.3034 85.1289 73.3164 85.2227 73.3164C85.4909 73.3164 85.7018 73.2643 85.8555 73.1602C86.0117 73.0534 86.1224 72.9102 86.1875 72.7305C86.2552 72.5508 86.2891 72.349 86.2891 72.125ZM89 70.6758V74H88.0586V69.7734H88.9453L89 70.6758ZM88.832 71.7305L88.5273 71.7266C88.5299 71.4271 88.5716 71.1523 88.6523 70.9023C88.7357 70.6523 88.8503 70.4375 88.9961 70.2578C89.1445 70.0781 89.3216 69.9401 89.5273 69.8438C89.7331 69.7448 89.9622 69.6953 90.2148 69.6953C90.418 69.6953 90.6016 69.724 90.7656 69.7812C90.9323 69.8359 91.0742 69.9258 91.1914 70.0508C91.3112 70.1758 91.4023 70.3385 91.4648 70.5391C91.5273 70.737 91.5586 70.9805 91.5586 71.2695V74H90.6133V71.2656C90.6133 71.0625 90.5833 70.9023 90.5234 70.7852C90.4661 70.6654 90.3815 70.5807 90.2695 70.5312C90.1602 70.4792 90.0234 70.4531 89.8594 70.4531C89.6979 70.4531 89.5534 70.487 89.4258 70.5547C89.2982 70.6224 89.1901 70.7148 89.1016 70.832C89.0156 70.9492 88.9492 71.0846 88.9023 71.2383C88.8555 71.3919 88.832 71.556 88.832 71.7305ZM95.0977 73.125V68H96.043V74H95.1875L95.0977 73.125ZM92.3477 71.9336V71.8516C92.3477 71.5312 92.3854 71.2396 92.4609 70.9766C92.5365 70.7109 92.6458 70.4831 92.7891 70.293C92.9323 70.1003 93.1068 69.9531 93.3125 69.8516C93.5182 69.7474 93.75 69.6953 94.0078 69.6953C94.263 69.6953 94.487 69.7448 94.6797 69.8438C94.8724 69.9427 95.0365 70.0846 95.1719 70.2695C95.3073 70.4518 95.4154 70.6706 95.4961 70.9258C95.5768 71.1784 95.6341 71.4596 95.668 71.7695V72.0312C95.6341 72.3333 95.5768 72.6094 95.4961 72.8594C95.4154 73.1094 95.3073 73.3255 95.1719 73.5078C95.0365 73.6901 94.8711 73.8307 94.6758 73.9297C94.4831 74.0286 94.2578 74.0781 94 74.0781C93.7448 74.0781 93.5143 74.0247 93.3086 73.918C93.1055 73.8112 92.9323 73.6615 92.7891 73.4688C92.6458 73.276 92.5365 73.0495 92.4609 72.7891C92.3854 72.526 92.3477 72.2409 92.3477 71.9336ZM93.2891 71.8516V71.9336C93.2891 72.1263 93.306 72.306 93.3398 72.4727C93.3763 72.6393 93.4323 72.7865 93.5078 72.9141C93.5833 73.0391 93.681 73.138 93.8008 73.2109C93.9232 73.2812 94.069 73.3164 94.2383 73.3164C94.4518 73.3164 94.6276 73.2695 94.7656 73.1758C94.9036 73.082 95.0117 72.9557 95.0898 72.7969C95.1706 72.6354 95.2253 72.4557 95.2539 72.2578V71.5508C95.2383 71.3971 95.2057 71.2539 95.1562 71.1211C95.1094 70.9883 95.0456 70.8724 94.9648 70.7734C94.8841 70.6719 94.7839 70.5938 94.6641 70.5391C94.5469 70.4818 94.4076 70.4531 94.2461 70.4531C94.0742 70.4531 93.9284 70.4896 93.8086 70.5625C93.6888 70.6354 93.5898 70.7357 93.5117 70.8633C93.4362 70.9909 93.3802 71.1393 93.3438 71.3086C93.3073 71.4779 93.2891 71.6589 93.2891 71.8516ZM98.8906 74.0781C98.5781 74.0781 98.2956 74.0273 98.043 73.9258C97.793 73.8216 97.5794 73.6771 97.4023 73.4922C97.2279 73.3073 97.0938 73.0898 97 72.8398C96.9062 72.5898 96.8594 72.3203 96.8594 72.0312V71.875C96.8594 71.5443 96.9076 71.2448 97.0039 70.9766C97.1003 70.7083 97.2344 70.4792 97.4062 70.2891C97.5781 70.0964 97.7812 69.9492 98.0156 69.8477C98.25 69.7461 98.5039 69.6953 98.7773 69.6953C99.0794 69.6953 99.3438 69.7461 99.5703 69.8477C99.7969 69.9492 99.9844 70.0924 100.133 70.2773C100.284 70.4596 100.396 70.6771 100.469 70.9297C100.544 71.1823 100.582 71.4609 100.582 71.7656V72.168H97.3164V71.4922H99.6523V71.418C99.6471 71.2487 99.6133 71.0898 99.5508 70.9414C99.4909 70.793 99.3984 70.6732 99.2734 70.582C99.1484 70.4909 98.9818 70.4453 98.7734 70.4453C98.6172 70.4453 98.4779 70.4792 98.3555 70.5469C98.2357 70.612 98.1354 70.707 98.0547 70.832C97.974 70.957 97.9115 71.1081 97.8672 71.2852C97.8255 71.4596 97.8047 71.6562 97.8047 71.875V72.0312C97.8047 72.2161 97.8294 72.388 97.8789 72.5469C97.931 72.7031 98.0065 72.8398 98.1055 72.957C98.2044 73.0742 98.3242 73.1667 98.4648 73.2344C98.6055 73.2995 98.7656 73.332 98.9453 73.332C99.1719 73.332 99.3737 73.2865 99.5508 73.1953C99.7279 73.1042 99.8815 72.9753 100.012 72.8086L100.508 73.2891C100.417 73.4219 100.298 73.5495 100.152 73.6719C100.007 73.7917 99.8281 73.8893 99.6172 73.9648C99.4089 74.0404 99.1667 74.0781 98.8906 74.0781ZM102.262 70.5781V74H101.32V69.7734H102.219L102.262 70.5781ZM103.555 69.7461L103.547 70.6211C103.49 70.6107 103.427 70.6029 103.359 70.5977C103.294 70.5924 103.229 70.5898 103.164 70.5898C103.003 70.5898 102.861 70.6133 102.738 70.6602C102.616 70.7044 102.513 70.7695 102.43 70.8555C102.349 70.9388 102.286 71.0404 102.242 71.1602C102.198 71.2799 102.172 71.4141 102.164 71.5625L101.949 71.5781C101.949 71.3125 101.975 71.0664 102.027 70.8398C102.079 70.6133 102.158 70.4141 102.262 70.2422C102.368 70.0703 102.501 69.9362 102.66 69.8398C102.822 69.7435 103.008 69.6953 103.219 69.6953C103.276 69.6953 103.337 69.7005 103.402 69.7109C103.47 69.7214 103.521 69.7331 103.555 69.7461ZM107.082 70.5781V74H106.141V69.7734H107.039L107.082 70.5781ZM108.375 69.7461L108.367 70.6211C108.31 70.6107 108.247 70.6029 108.18 70.5977C108.115 70.5924 108.049 70.5898 107.984 70.5898C107.823 70.5898 107.681 70.6133 107.559 70.6602C107.436 70.7044 107.333 70.7695 107.25 70.8555C107.169 70.9388 107.107 71.0404 107.062 71.1602C107.018 71.2799 106.992 71.4141 106.984 71.5625L106.77 71.5781C106.77 71.3125 106.796 71.0664 106.848 70.8398C106.9 70.6133 106.978 70.4141 107.082 70.2422C107.189 70.0703 107.322 69.9362 107.48 69.8398C107.642 69.7435 107.828 69.6953 108.039 69.6953C108.096 69.6953 108.158 69.7005 108.223 69.7109C108.29 69.7214 108.341 69.7331 108.375 69.7461ZM110.75 74.0781C110.438 74.0781 110.155 74.0273 109.902 73.9258C109.652 73.8216 109.439 73.6771 109.262 73.4922C109.087 73.3073 108.953 73.0898 108.859 72.8398C108.766 72.5898 108.719 72.3203 108.719 72.0312V71.875C108.719 71.5443 108.767 71.2448 108.863 70.9766C108.96 70.7083 109.094 70.4792 109.266 70.2891C109.438 70.0964 109.641 69.9492 109.875 69.8477C110.109 69.7461 110.363 69.6953 110.637 69.6953C110.939 69.6953 111.203 69.7461 111.43 69.8477C111.656 69.9492 111.844 70.0924 111.992 70.2773C112.143 70.4596 112.255 70.6771 112.328 70.9297C112.404 71.1823 112.441 71.4609 112.441 71.7656V72.168H109.176V71.4922H111.512V71.418C111.507 71.2487 111.473 71.0898 111.41 70.9414C111.35 70.793 111.258 70.6732 111.133 70.582C111.008 70.4909 110.841 70.4453 110.633 70.4453C110.477 70.4453 110.337 70.4792 110.215 70.5469C110.095 70.612 109.995 70.707 109.914 70.832C109.833 70.957 109.771 71.1081 109.727 71.2852C109.685 71.4596 109.664 71.6562 109.664 71.875V72.0312C109.664 72.2161 109.689 72.388 109.738 72.5469C109.79 72.7031 109.866 72.8398 109.965 72.957C110.064 73.0742 110.184 73.1667 110.324 73.2344C110.465 73.2995 110.625 73.332 110.805 73.332C111.031 73.332 111.233 73.2865 111.41 73.1953C111.587 73.1042 111.741 72.9753 111.871 72.8086L112.367 73.2891C112.276 73.4219 112.158 73.5495 112.012 73.6719C111.866 73.7917 111.688 73.8893 111.477 73.9648C111.268 74.0404 111.026 74.0781 110.75 74.0781ZM114.496 73.2539L115.531 69.7734H116.508L115.039 74H114.43L114.496 73.2539ZM113.703 69.7734L114.758 73.2695L114.809 74H114.199L112.723 69.7734H113.703ZM118.098 69.7734V74H117.152V69.7734H118.098ZM117.09 68.6641C117.09 68.5208 117.137 68.4023 117.23 68.3086C117.327 68.2122 117.46 68.1641 117.629 68.1641C117.796 68.1641 117.927 68.2122 118.023 68.3086C118.12 68.4023 118.168 68.5208 118.168 68.6641C118.168 68.8047 118.12 68.9219 118.023 69.0156C117.927 69.1094 117.796 69.1562 117.629 69.1562C117.46 69.1562 117.327 69.1094 117.23 69.0156C117.137 68.9219 117.09 68.8047 117.09 68.6641ZM120.992 74.0781C120.68 74.0781 120.397 74.0273 120.145 73.9258C119.895 73.8216 119.681 73.6771 119.504 73.4922C119.329 73.3073 119.195 73.0898 119.102 72.8398C119.008 72.5898 118.961 72.3203 118.961 72.0312V71.875C118.961 71.5443 119.009 71.2448 119.105 70.9766C119.202 70.7083 119.336 70.4792 119.508 70.2891C119.68 70.0964 119.883 69.9492 120.117 69.8477C120.352 69.7461 120.605 69.6953 120.879 69.6953C121.181 69.6953 121.445 69.7461 121.672 69.8477C121.898 69.9492 122.086 70.0924 122.234 70.2773C122.385 70.4596 122.497 70.6771 122.57 70.9297C122.646 71.1823 122.684 71.4609 122.684 71.7656V72.168H119.418V71.4922H121.754V71.418C121.749 71.2487 121.715 71.0898 121.652 70.9414C121.592 70.793 121.5 70.6732 121.375 70.582C121.25 70.4909 121.083 70.4453 120.875 70.4453C120.719 70.4453 120.579 70.4792 120.457 70.5469C120.337 70.612 120.237 70.707 120.156 70.832C120.076 70.957 120.013 71.1081 119.969 71.2852C119.927 71.4596 119.906 71.6562 119.906 71.875V72.0312C119.906 72.2161 119.931 72.388 119.98 72.5469C120.033 72.7031 120.108 72.8398 120.207 72.957C120.306 73.0742 120.426 73.1667 120.566 73.2344C120.707 73.2995 120.867 73.332 121.047 73.332C121.273 73.332 121.475 73.2865 121.652 73.1953C121.829 73.1042 121.983 72.9753 122.113 72.8086L122.609 73.2891C122.518 73.4219 122.4 73.5495 122.254 73.6719C122.108 73.7917 121.93 73.8893 121.719 73.9648C121.51 74.0404 121.268 74.0781 120.992 74.0781ZM124.566 73.0625L125.543 69.7734H126.145L125.98 70.7578L124.996 74H124.457L124.566 73.0625ZM123.992 69.7734L124.754 73.0781L124.816 74H124.215L123.07 69.7734H123.992ZM127.059 73.0391L127.797 69.7734H128.715L127.574 74H126.973L127.059 73.0391ZM126.246 69.7734L127.211 73.0234L127.332 74H126.793L125.797 70.7539L125.633 69.7734H126.246Z" fill="#343434"/>
<path d="M185.5 35.75H179.25V34.5C179.25 34.1685 179.118 33.8505 178.884 33.6161C178.649 33.3817 178.332 33.25 178 33.25H170.5C170.168 33.25 169.851 33.3817 169.616 33.6161C169.382 33.8505 169.25 34.1685 169.25 34.5V47C169.25 47.3315 169.382 47.6495 169.616 47.8839C169.851 48.1183 170.168 48.25 170.5 48.25H176.75V49.5C176.75 49.8315 176.882 50.1495 177.116 50.3839C177.351 50.6183 177.668 50.75 178 50.75H185.5C185.832 50.75 186.149 50.6183 186.384 50.3839C186.618 50.1495 186.75 49.8315 186.75 49.5V37C186.75 36.6685 186.618 36.3505 186.384 36.1161C186.149 35.8817 185.832 35.75 185.5 35.75ZM170.5 41.375H174.356L172.744 42.9938L173.625 43.875L176.75 40.75L173.625 37.625L172.744 38.5062L174.356 40.125H170.5V34.5H178V47H170.5V41.375ZM178 49.5V48.25C178.332 48.25 178.649 48.1183 178.884 47.8839C179.118 47.6495 179.25 47.3315 179.25 47V37H185.5V42.625H181.644L183.256 41.0062L182.375 40.125L179.25 43.25L182.375 46.375L183.256 45.4938L181.644 43.875H185.5V49.5H178Z" fill="#2872B3"/>
<path d="M155.703 70.5859V75.625H154.762V69.7734H155.629L155.703 70.5859ZM158.457 71.8477V71.9297C158.457 72.237 158.421 72.5221 158.348 72.7852C158.277 73.0456 158.172 73.2734 158.031 73.4688C157.893 73.6615 157.723 73.8112 157.52 73.918C157.316 74.0247 157.082 74.0781 156.816 74.0781C156.553 74.0781 156.323 74.0299 156.125 73.9336C155.93 73.8346 155.764 73.6953 155.629 73.5156C155.493 73.3359 155.384 73.125 155.301 72.8828C155.22 72.638 155.163 72.3698 155.129 72.0781V71.7617C155.163 71.4518 155.22 71.1706 155.301 70.918C155.384 70.6654 155.493 70.4479 155.629 70.2656C155.764 70.0833 155.93 69.9427 156.125 69.8438C156.32 69.7448 156.548 69.6953 156.809 69.6953C157.074 69.6953 157.31 69.7474 157.516 69.8516C157.721 69.9531 157.895 70.099 158.035 70.2891C158.176 70.4766 158.281 70.7031 158.352 70.9688C158.422 71.2318 158.457 71.5247 158.457 71.8477ZM157.516 71.9297V71.8477C157.516 71.6523 157.497 71.4714 157.461 71.3047C157.424 71.1354 157.367 70.987 157.289 70.8594C157.211 70.7318 157.111 70.6328 156.988 70.5625C156.868 70.4896 156.724 70.4531 156.555 70.4531C156.388 70.4531 156.245 70.4818 156.125 70.5391C156.005 70.5938 155.905 70.6706 155.824 70.7695C155.743 70.8685 155.681 70.9844 155.637 71.1172C155.592 71.2474 155.561 71.3893 155.543 71.543V72.3008C155.574 72.4883 155.628 72.6602 155.703 72.8164C155.779 72.9727 155.885 73.0977 156.023 73.1914C156.164 73.2826 156.344 73.3281 156.562 73.3281C156.732 73.3281 156.876 73.2917 156.996 73.2188C157.116 73.1458 157.214 73.0456 157.289 72.918C157.367 72.7878 157.424 72.638 157.461 72.4688C157.497 72.2995 157.516 72.1198 157.516 71.9297ZM161.641 73.1523V71.1367C161.641 70.9857 161.613 70.8555 161.559 70.7461C161.504 70.6367 161.421 70.5521 161.309 70.4922C161.199 70.4323 161.061 70.4023 160.895 70.4023C160.741 70.4023 160.608 70.4284 160.496 70.4805C160.384 70.5326 160.297 70.6029 160.234 70.6914C160.172 70.7799 160.141 70.8802 160.141 70.9922H159.203C159.203 70.8255 159.243 70.6641 159.324 70.5078C159.405 70.3516 159.522 70.2122 159.676 70.0898C159.829 69.9674 160.013 69.8711 160.227 69.8008C160.44 69.7305 160.68 69.6953 160.945 69.6953C161.263 69.6953 161.544 69.7487 161.789 69.8555C162.036 69.9622 162.23 70.1237 162.371 70.3398C162.514 70.5534 162.586 70.8216 162.586 71.1445V73.0234C162.586 73.2161 162.599 73.3893 162.625 73.543C162.654 73.694 162.694 73.8255 162.746 73.9375V74H161.781C161.737 73.8984 161.702 73.7695 161.676 73.6133C161.652 73.4544 161.641 73.3008 161.641 73.1523ZM161.777 71.4297L161.785 72.0117H161.109C160.935 72.0117 160.781 72.0286 160.648 72.0625C160.516 72.0938 160.405 72.1406 160.316 72.2031C160.228 72.2656 160.161 72.3411 160.117 72.4297C160.073 72.5182 160.051 72.6185 160.051 72.7305C160.051 72.8424 160.077 72.9453 160.129 73.0391C160.181 73.1302 160.257 73.2018 160.355 73.2539C160.457 73.306 160.579 73.332 160.723 73.332C160.915 73.332 161.083 73.293 161.227 73.2148C161.372 73.1341 161.487 73.0365 161.57 72.9219C161.654 72.8047 161.698 72.694 161.703 72.5898L162.008 73.0078C161.977 73.1146 161.923 73.2292 161.848 73.3516C161.772 73.474 161.673 73.5911 161.551 73.7031C161.431 73.8125 161.286 73.9023 161.117 73.9727C160.951 74.043 160.758 74.0781 160.539 74.0781C160.263 74.0781 160.017 74.0234 159.801 73.9141C159.585 73.8021 159.415 73.6523 159.293 73.4648C159.171 73.2747 159.109 73.0599 159.109 72.8203C159.109 72.5964 159.151 72.3984 159.234 72.2266C159.32 72.0521 159.445 71.9062 159.609 71.7891C159.776 71.6719 159.979 71.5833 160.219 71.5234C160.458 71.4609 160.732 71.4297 161.039 71.4297H161.777ZM164.516 70.5781V74H163.574V69.7734H164.473L164.516 70.5781ZM165.809 69.7461L165.801 70.6211C165.743 70.6107 165.681 70.6029 165.613 70.5977C165.548 70.5924 165.483 70.5898 165.418 70.5898C165.257 70.5898 165.115 70.6133 164.992 70.6602C164.87 70.7044 164.767 70.7695 164.684 70.8555C164.603 70.9388 164.54 71.0404 164.496 71.1602C164.452 71.2799 164.426 71.4141 164.418 71.5625L164.203 71.5781C164.203 71.3125 164.229 71.0664 164.281 70.8398C164.333 70.6133 164.411 70.4141 164.516 70.2422C164.622 70.0703 164.755 69.9362 164.914 69.8398C165.076 69.7435 165.262 69.6953 165.473 69.6953C165.53 69.6953 165.591 69.7005 165.656 69.7109C165.724 69.7214 165.775 69.7331 165.809 69.7461ZM168.531 69.7734V70.4609H166.148V69.7734H168.531ZM166.836 68.7383H167.777V72.832C167.777 72.9622 167.796 73.0625 167.832 73.1328C167.871 73.2005 167.924 73.2461 167.992 73.2695C168.06 73.293 168.139 73.3047 168.23 73.3047C168.296 73.3047 168.358 73.3008 168.418 73.293C168.478 73.2852 168.526 73.2773 168.562 73.2695L168.566 73.9883C168.488 74.0117 168.397 74.0326 168.293 74.0508C168.191 74.069 168.074 74.0781 167.941 74.0781C167.725 74.0781 167.534 74.0404 167.367 73.9648C167.201 73.8867 167.07 73.7604 166.977 73.5859C166.883 73.4115 166.836 73.1797 166.836 72.8906V68.7383ZM170.266 69.7734V74H169.32V69.7734H170.266ZM169.258 68.6641C169.258 68.5208 169.305 68.4023 169.398 68.3086C169.495 68.2122 169.628 68.1641 169.797 68.1641C169.964 68.1641 170.095 68.2122 170.191 68.3086C170.288 68.4023 170.336 68.5208 170.336 68.6641C170.336 68.8047 170.288 68.9219 170.191 69.0156C170.095 69.1094 169.964 69.1562 169.797 69.1562C169.628 69.1562 169.495 69.1094 169.398 69.0156C169.305 68.9219 169.258 68.8047 169.258 68.6641ZM173.68 73.1523V71.1367C173.68 70.9857 173.652 70.8555 173.598 70.7461C173.543 70.6367 173.46 70.5521 173.348 70.4922C173.238 70.4323 173.1 70.4023 172.934 70.4023C172.78 70.4023 172.647 70.4284 172.535 70.4805C172.423 70.5326 172.336 70.6029 172.273 70.6914C172.211 70.7799 172.18 70.8802 172.18 70.9922H171.242C171.242 70.8255 171.283 70.6641 171.363 70.5078C171.444 70.3516 171.561 70.2122 171.715 70.0898C171.868 69.9674 172.052 69.8711 172.266 69.8008C172.479 69.7305 172.719 69.6953 172.984 69.6953C173.302 69.6953 173.583 69.7487 173.828 69.8555C174.076 69.9622 174.27 70.1237 174.41 70.3398C174.553 70.5534 174.625 70.8216 174.625 71.1445V73.0234C174.625 73.2161 174.638 73.3893 174.664 73.543C174.693 73.694 174.733 73.8255 174.785 73.9375V74H173.82C173.776 73.8984 173.741 73.7695 173.715 73.6133C173.691 73.4544 173.68 73.3008 173.68 73.1523ZM173.816 71.4297L173.824 72.0117H173.148C172.974 72.0117 172.82 72.0286 172.688 72.0625C172.555 72.0938 172.444 72.1406 172.355 72.2031C172.267 72.2656 172.201 72.3411 172.156 72.4297C172.112 72.5182 172.09 72.6185 172.09 72.7305C172.09 72.8424 172.116 72.9453 172.168 73.0391C172.22 73.1302 172.296 73.2018 172.395 73.2539C172.496 73.306 172.618 73.332 172.762 73.332C172.954 73.332 173.122 73.293 173.266 73.2148C173.411 73.1341 173.526 73.0365 173.609 72.9219C173.693 72.8047 173.737 72.694 173.742 72.5898L174.047 73.0078C174.016 73.1146 173.962 73.2292 173.887 73.3516C173.811 73.474 173.712 73.5911 173.59 73.7031C173.47 73.8125 173.326 73.9023 173.156 73.9727C172.99 74.043 172.797 74.0781 172.578 74.0781C172.302 74.0781 172.056 74.0234 171.84 73.9141C171.624 73.8021 171.454 73.6523 171.332 73.4648C171.21 73.2747 171.148 73.0599 171.148 72.8203C171.148 72.5964 171.19 72.3984 171.273 72.2266C171.359 72.0521 171.484 71.9062 171.648 71.7891C171.815 71.6719 172.018 71.5833 172.258 71.5234C172.497 71.4609 172.771 71.4297 173.078 71.4297H173.816ZM176.617 68V74H175.672V68H176.617ZM180.582 70.6328V74H179.641V69.7734H180.527L180.582 70.6328ZM180.43 71.7305L180.109 71.7266C180.109 71.4349 180.146 71.1654 180.219 70.918C180.292 70.6706 180.398 70.4557 180.539 70.2734C180.68 70.0885 180.854 69.9466 181.062 69.8477C181.273 69.7461 181.517 69.6953 181.793 69.6953C181.986 69.6953 182.161 69.724 182.32 69.7812C182.482 69.8359 182.621 69.9232 182.738 70.043C182.858 70.1628 182.949 70.3164 183.012 70.5039C183.077 70.6914 183.109 70.918 183.109 71.1836V74H182.168V71.2656C182.168 71.0599 182.137 70.8984 182.074 70.7812C182.014 70.6641 181.927 70.5807 181.812 70.5312C181.701 70.4792 181.566 70.4531 181.41 70.4531C181.233 70.4531 181.082 70.487 180.957 70.5547C180.835 70.6224 180.734 70.7148 180.656 70.832C180.578 70.9492 180.521 71.0846 180.484 71.2383C180.448 71.3919 180.43 71.556 180.43 71.7305ZM183.051 71.4805L182.609 71.5781C182.609 71.3229 182.645 71.082 182.715 70.8555C182.788 70.6263 182.893 70.4258 183.031 70.2539C183.172 70.0794 183.345 69.9427 183.551 69.8438C183.757 69.7448 183.992 69.6953 184.258 69.6953C184.474 69.6953 184.667 69.7253 184.836 69.7852C185.008 69.8424 185.154 69.9336 185.273 70.0586C185.393 70.1836 185.484 70.3464 185.547 70.5469C185.609 70.7448 185.641 70.9844 185.641 71.2656V74H184.695V71.2617C184.695 71.0482 184.664 70.8828 184.602 70.7656C184.542 70.6484 184.456 70.5677 184.344 70.5234C184.232 70.4766 184.098 70.4531 183.941 70.4531C183.796 70.4531 183.667 70.4805 183.555 70.5352C183.445 70.5872 183.353 70.6615 183.277 70.7578C183.202 70.8516 183.145 70.9596 183.105 71.082C183.069 71.2044 183.051 71.3372 183.051 71.4805ZM188.992 73.1523V71.1367C188.992 70.9857 188.965 70.8555 188.91 70.7461C188.855 70.6367 188.772 70.5521 188.66 70.4922C188.551 70.4323 188.413 70.4023 188.246 70.4023C188.092 70.4023 187.96 70.4284 187.848 70.4805C187.736 70.5326 187.648 70.6029 187.586 70.6914C187.523 70.7799 187.492 70.8802 187.492 70.9922H186.555C186.555 70.8255 186.595 70.6641 186.676 70.5078C186.757 70.3516 186.874 70.2122 187.027 70.0898C187.181 69.9674 187.365 69.8711 187.578 69.8008C187.792 69.7305 188.031 69.6953 188.297 69.6953C188.615 69.6953 188.896 69.7487 189.141 69.8555C189.388 69.9622 189.582 70.1237 189.723 70.3398C189.866 70.5534 189.938 70.8216 189.938 71.1445V73.0234C189.938 73.2161 189.951 73.3893 189.977 73.543C190.005 73.694 190.046 73.8255 190.098 73.9375V74H189.133C189.089 73.8984 189.053 73.7695 189.027 73.6133C189.004 73.4544 188.992 73.3008 188.992 73.1523ZM189.129 71.4297L189.137 72.0117H188.461C188.286 72.0117 188.133 72.0286 188 72.0625C187.867 72.0938 187.757 72.1406 187.668 72.2031C187.579 72.2656 187.513 72.3411 187.469 72.4297C187.424 72.5182 187.402 72.6185 187.402 72.7305C187.402 72.8424 187.428 72.9453 187.48 73.0391C187.533 73.1302 187.608 73.2018 187.707 73.2539C187.809 73.306 187.931 73.332 188.074 73.332C188.267 73.332 188.435 73.293 188.578 73.2148C188.724 73.1341 188.839 73.0365 188.922 72.9219C189.005 72.8047 189.049 72.694 189.055 72.5898L189.359 73.0078C189.328 73.1146 189.275 73.2292 189.199 73.3516C189.124 73.474 189.025 73.5911 188.902 73.7031C188.783 73.8125 188.638 73.9023 188.469 73.9727C188.302 74.043 188.109 74.0781 187.891 74.0781C187.615 74.0781 187.368 74.0234 187.152 73.9141C186.936 73.8021 186.767 73.6523 186.645 73.4648C186.522 73.2747 186.461 73.0599 186.461 72.8203C186.461 72.5964 186.503 72.3984 186.586 72.2266C186.672 72.0521 186.797 71.9062 186.961 71.7891C187.128 71.6719 187.331 71.5833 187.57 71.5234C187.81 71.4609 188.083 71.4297 188.391 71.4297H189.129ZM192.859 69.7734V70.4609H190.477V69.7734H192.859ZM191.164 68.7383H192.105V72.832C192.105 72.9622 192.124 73.0625 192.16 73.1328C192.199 73.2005 192.253 73.2461 192.32 73.2695C192.388 73.293 192.467 73.3047 192.559 73.3047C192.624 73.3047 192.686 73.3008 192.746 73.293C192.806 73.2852 192.854 73.2773 192.891 73.2695L192.895 73.9883C192.816 74.0117 192.725 74.0326 192.621 74.0508C192.52 74.069 192.402 74.0781 192.27 74.0781C192.053 74.0781 191.862 74.0404 191.695 73.9648C191.529 73.8867 191.398 73.7604 191.305 73.5859C191.211 73.4115 191.164 73.1797 191.164 72.8906V68.7383ZM195.312 73.3281C195.466 73.3281 195.604 73.2982 195.727 73.2383C195.852 73.1758 195.952 73.0898 196.027 72.9805C196.105 72.8711 196.148 72.7448 196.156 72.6016H197.043C197.038 72.875 196.957 73.1237 196.801 73.3477C196.645 73.5716 196.438 73.75 196.18 73.8828C195.922 74.013 195.637 74.0781 195.324 74.0781C195.001 74.0781 194.72 74.0234 194.48 73.9141C194.241 73.8021 194.042 73.6484 193.883 73.4531C193.724 73.2578 193.604 73.0326 193.523 72.7773C193.445 72.5221 193.406 72.2487 193.406 71.957V71.8203C193.406 71.5286 193.445 71.2552 193.523 71C193.604 70.7422 193.724 70.5156 193.883 70.3203C194.042 70.125 194.241 69.9727 194.48 69.8633C194.72 69.7513 195 69.6953 195.32 69.6953C195.659 69.6953 195.956 69.763 196.211 69.8984C196.466 70.0312 196.667 70.2174 196.812 70.457C196.961 70.694 197.038 70.9701 197.043 71.2852H196.156C196.148 71.1289 196.109 70.9883 196.039 70.8633C195.971 70.7357 195.875 70.6341 195.75 70.5586C195.628 70.4831 195.48 70.4453 195.309 70.4453C195.118 70.4453 194.961 70.4844 194.836 70.5625C194.711 70.638 194.613 70.7422 194.543 70.875C194.473 71.0052 194.422 71.1523 194.391 71.3164C194.362 71.4779 194.348 71.6458 194.348 71.8203V71.957C194.348 72.1315 194.362 72.3008 194.391 72.4648C194.419 72.6289 194.469 72.776 194.539 72.9062C194.612 73.0339 194.711 73.1367 194.836 73.2148C194.961 73.2904 195.12 73.3281 195.312 73.3281ZM198.695 68V74H197.758V68H198.695ZM198.531 71.7305L198.227 71.7266C198.229 71.4349 198.27 71.1654 198.348 70.918C198.428 70.6706 198.54 70.4557 198.684 70.2734C198.829 70.0885 199.004 69.9466 199.207 69.8477C199.41 69.7461 199.635 69.6953 199.883 69.6953C200.091 69.6953 200.279 69.724 200.445 69.7812C200.615 69.8385 200.76 69.931 200.883 70.0586C201.005 70.1836 201.098 70.3477 201.16 70.5508C201.225 70.7513 201.258 70.9961 201.258 71.2852V74H200.312V71.2773C200.312 71.0742 200.283 70.9128 200.223 70.793C200.165 70.6732 200.081 70.5872 199.969 70.5352C199.857 70.4805 199.72 70.4531 199.559 70.4531C199.389 70.4531 199.24 70.487 199.109 70.5547C198.982 70.6224 198.875 70.7148 198.789 70.832C198.703 70.9492 198.638 71.0846 198.594 71.2383C198.552 71.3919 198.531 71.556 198.531 71.7305Z" fill="#343434"/>
<path d="M246.875 41.375L249.375 43.875L253.75 39.5M242.79 45.75C241.933 44.1041 241.664 42.2143 242.03 40.3948C242.396 38.5754 243.374 36.936 244.8 35.7493C246.227 34.5626 248.017 33.9001 249.873 33.872C251.729 33.844 253.538 34.452 255 35.595L251.875 37M248.75 47L244.9 48.325C246.412 49.5452 248.311 50.1832 250.253 50.1233C252.195 50.0634 254.051 49.3097 255.485 47.9987C256.919 46.6877 257.836 44.9062 258.069 42.9774C258.302 41.0485 257.836 39.1 256.756 37.485" stroke="#2872B3" stroke-width="1.4"/>
<path d="M235.277 68.3125H236.152L237.797 72.6992L239.438 68.3125H240.312L238.141 74H237.445L235.277 68.3125ZM234.879 68.3125H235.711L235.855 72.1094V74H234.879V68.3125ZM239.879 68.3125H240.715V74H239.734V72.1094L239.879 68.3125ZM244.168 73.1523V71.1367C244.168 70.9857 244.141 70.8555 244.086 70.7461C244.031 70.6367 243.948 70.5521 243.836 70.4922C243.727 70.4323 243.589 70.4023 243.422 70.4023C243.268 70.4023 243.135 70.4284 243.023 70.4805C242.911 70.5326 242.824 70.6029 242.762 70.6914C242.699 70.7799 242.668 70.8802 242.668 70.9922H241.73C241.73 70.8255 241.771 70.6641 241.852 70.5078C241.932 70.3516 242.049 70.2122 242.203 70.0898C242.357 69.9674 242.54 69.8711 242.754 69.8008C242.967 69.7305 243.207 69.6953 243.473 69.6953C243.79 69.6953 244.072 69.7487 244.316 69.8555C244.564 69.9622 244.758 70.1237 244.898 70.3398C245.042 70.5534 245.113 70.8216 245.113 71.1445V73.0234C245.113 73.2161 245.126 73.3893 245.152 73.543C245.181 73.694 245.221 73.8255 245.273 73.9375V74H244.309C244.264 73.8984 244.229 73.7695 244.203 73.6133C244.18 73.4544 244.168 73.3008 244.168 73.1523ZM244.305 71.4297L244.312 72.0117H243.637C243.462 72.0117 243.309 72.0286 243.176 72.0625C243.043 72.0938 242.932 72.1406 242.844 72.2031C242.755 72.2656 242.689 72.3411 242.645 72.4297C242.6 72.5182 242.578 72.6185 242.578 72.7305C242.578 72.8424 242.604 72.9453 242.656 73.0391C242.708 73.1302 242.784 73.2018 242.883 73.2539C242.984 73.306 243.107 73.332 243.25 73.332C243.443 73.332 243.611 73.293 243.754 73.2148C243.9 73.1341 244.014 73.0365 244.098 72.9219C244.181 72.8047 244.225 72.694 244.23 72.5898L244.535 73.0078C244.504 73.1146 244.451 73.2292 244.375 73.3516C244.299 73.474 244.201 73.5911 244.078 73.7031C243.958 73.8125 243.814 73.9023 243.645 73.9727C243.478 74.043 243.285 74.0781 243.066 74.0781C242.79 74.0781 242.544 74.0234 242.328 73.9141C242.112 73.8021 241.943 73.6523 241.82 73.4648C241.698 73.2747 241.637 73.0599 241.637 72.8203C241.637 72.5964 241.678 72.3984 241.762 72.2266C241.848 72.0521 241.973 71.9062 242.137 71.7891C242.303 71.6719 242.507 71.5833 242.746 71.5234C242.986 71.4609 243.259 71.4297 243.566 71.4297H244.305ZM248.035 69.7734V70.4609H245.652V69.7734H248.035ZM246.34 68.7383H247.281V72.832C247.281 72.9622 247.299 73.0625 247.336 73.1328C247.375 73.2005 247.428 73.2461 247.496 73.2695C247.564 73.293 247.643 73.3047 247.734 73.3047C247.799 73.3047 247.862 73.3008 247.922 73.293C247.982 73.2852 248.03 73.2773 248.066 73.2695L248.07 73.9883C247.992 74.0117 247.901 74.0326 247.797 74.0508C247.695 74.069 247.578 74.0781 247.445 74.0781C247.229 74.0781 247.038 74.0404 246.871 73.9648C246.704 73.8867 246.574 73.7604 246.48 73.5859C246.387 73.4115 246.34 73.1797 246.34 72.8906V68.7383ZM250.488 73.3281C250.642 73.3281 250.78 73.2982 250.902 73.2383C251.027 73.1758 251.128 73.0898 251.203 72.9805C251.281 72.8711 251.324 72.7448 251.332 72.6016H252.219C252.214 72.875 252.133 73.1237 251.977 73.3477C251.82 73.5716 251.613 73.75 251.355 73.8828C251.098 74.013 250.812 74.0781 250.5 74.0781C250.177 74.0781 249.896 74.0234 249.656 73.9141C249.417 73.8021 249.217 73.6484 249.059 73.4531C248.9 73.2578 248.78 73.0326 248.699 72.7773C248.621 72.5221 248.582 72.2487 248.582 71.957V71.8203C248.582 71.5286 248.621 71.2552 248.699 71C248.78 70.7422 248.9 70.5156 249.059 70.3203C249.217 70.125 249.417 69.9727 249.656 69.8633C249.896 69.7513 250.176 69.6953 250.496 69.6953C250.835 69.6953 251.132 69.763 251.387 69.8984C251.642 70.0312 251.842 70.2174 251.988 70.457C252.137 70.694 252.214 70.9701 252.219 71.2852H251.332C251.324 71.1289 251.285 70.9883 251.215 70.8633C251.147 70.7357 251.051 70.6341 250.926 70.5586C250.803 70.4831 250.656 70.4453 250.484 70.4453C250.294 70.4453 250.137 70.4844 250.012 70.5625C249.887 70.638 249.789 70.7422 249.719 70.875C249.648 71.0052 249.598 71.1523 249.566 71.3164C249.538 71.4779 249.523 71.6458 249.523 71.8203V71.957C249.523 72.1315 249.538 72.3008 249.566 72.4648C249.595 72.6289 249.645 72.776 249.715 72.9062C249.788 73.0339 249.887 73.1367 250.012 73.2148C250.137 73.2904 250.296 73.3281 250.488 73.3281ZM253.871 68V74H252.934V68H253.871ZM253.707 71.7305L253.402 71.7266C253.405 71.4349 253.445 71.1654 253.523 70.918C253.604 70.6706 253.716 70.4557 253.859 70.2734C254.005 70.0885 254.18 69.9466 254.383 69.8477C254.586 69.7461 254.811 69.6953 255.059 69.6953C255.267 69.6953 255.454 69.724 255.621 69.7812C255.79 69.8385 255.936 69.931 256.059 70.0586C256.181 70.1836 256.273 70.3477 256.336 70.5508C256.401 70.7513 256.434 70.9961 256.434 71.2852V74H255.488V71.2773C255.488 71.0742 255.458 70.9128 255.398 70.793C255.341 70.6732 255.257 70.5872 255.145 70.5352C255.033 70.4805 254.896 70.4531 254.734 70.4531C254.565 70.4531 254.415 70.487 254.285 70.5547C254.158 70.6224 254.051 70.7148 253.965 70.832C253.879 70.9492 253.814 71.0846 253.77 71.2383C253.728 71.3919 253.707 71.556 253.707 71.7305ZM259.25 74.0781C258.938 74.0781 258.655 74.0273 258.402 73.9258C258.152 73.8216 257.939 73.6771 257.762 73.4922C257.587 73.3073 257.453 73.0898 257.359 72.8398C257.266 72.5898 257.219 72.3203 257.219 72.0312V71.875C257.219 71.5443 257.267 71.2448 257.363 70.9766C257.46 70.7083 257.594 70.4792 257.766 70.2891C257.938 70.0964 258.141 69.9492 258.375 69.8477C258.609 69.7461 258.863 69.6953 259.137 69.6953C259.439 69.6953 259.703 69.7461 259.93 69.8477C260.156 69.9492 260.344 70.0924 260.492 70.2773C260.643 70.4596 260.755 70.6771 260.828 70.9297C260.904 71.1823 260.941 71.4609 260.941 71.7656V72.168H257.676V71.4922H260.012V71.418C260.007 71.2487 259.973 71.0898 259.91 70.9414C259.85 70.793 259.758 70.6732 259.633 70.582C259.508 70.4909 259.341 70.4453 259.133 70.4453C258.977 70.4453 258.837 70.4792 258.715 70.5469C258.595 70.612 258.495 70.707 258.414 70.832C258.333 70.957 258.271 71.1081 258.227 71.2852C258.185 71.4596 258.164 71.6562 258.164 71.875V72.0312C258.164 72.2161 258.189 72.388 258.238 72.5469C258.29 72.7031 258.366 72.8398 258.465 72.957C258.564 73.0742 258.684 73.1667 258.824 73.2344C258.965 73.2995 259.125 73.332 259.305 73.332C259.531 73.332 259.733 73.2865 259.91 73.1953C260.087 73.1042 260.241 72.9753 260.371 72.8086L260.867 73.2891C260.776 73.4219 260.658 73.5495 260.512 73.6719C260.366 73.7917 260.188 73.8893 259.977 73.9648C259.768 74.0404 259.526 74.0781 259.25 74.0781ZM264.254 73.125V68H265.199V74H264.344L264.254 73.125ZM261.504 71.9336V71.8516C261.504 71.5312 261.542 71.2396 261.617 70.9766C261.693 70.7109 261.802 70.4831 261.945 70.293C262.089 70.1003 262.263 69.9531 262.469 69.8516C262.674 69.7474 262.906 69.6953 263.164 69.6953C263.419 69.6953 263.643 69.7448 263.836 69.8438C264.029 69.9427 264.193 70.0846 264.328 70.2695C264.464 70.4518 264.572 70.6706 264.652 70.9258C264.733 71.1784 264.79 71.4596 264.824 71.7695V72.0312C264.79 72.3333 264.733 72.6094 264.652 72.8594C264.572 73.1094 264.464 73.3255 264.328 73.5078C264.193 73.6901 264.027 73.8307 263.832 73.9297C263.639 74.0286 263.414 74.0781 263.156 74.0781C262.901 74.0781 262.671 74.0247 262.465 73.918C262.262 73.8112 262.089 73.6615 261.945 73.4688C261.802 73.276 261.693 73.0495 261.617 72.7891C261.542 72.526 261.504 72.2409 261.504 71.9336ZM262.445 71.8516V71.9336C262.445 72.1263 262.462 72.306 262.496 72.4727C262.533 72.6393 262.589 72.7865 262.664 72.9141C262.74 73.0391 262.837 73.138 262.957 73.2109C263.079 73.2812 263.225 73.3164 263.395 73.3164C263.608 73.3164 263.784 73.2695 263.922 73.1758C264.06 73.082 264.168 72.9557 264.246 72.7969C264.327 72.6354 264.382 72.4557 264.41 72.2578V71.5508C264.395 71.3971 264.362 71.2539 264.312 71.1211C264.266 70.9883 264.202 70.8724 264.121 70.7734C264.04 70.6719 263.94 70.5938 263.82 70.5391C263.703 70.4818 263.564 70.4531 263.402 70.4531C263.23 70.4531 263.085 70.4896 262.965 70.5625C262.845 70.6354 262.746 70.7357 262.668 70.8633C262.592 70.9909 262.536 71.1393 262.5 71.3086C262.464 71.4779 262.445 71.6589 262.445 71.8516Z" fill="#343434"/>
<path opacity="0.2" d="M327.625 43.9453L324.75 46.8203C324.672 46.8936 324.577 46.9468 324.473 46.9753C324.37 47.0039 324.261 47.007 324.156 46.9844L319.625 45.8515C319.542 45.8285 319.465 45.7886 319.398 45.7344L315.125 42.3984L317.672 37.6094L321.68 36.4375C321.822 36.3966 321.974 36.4077 322.109 36.4687L324.812 37.6953H323.195C323.114 37.695 323.034 37.7107 322.959 37.7416C322.884 37.7724 322.815 37.8177 322.758 37.875L319.695 40.9297C319.633 40.9939 319.585 41.0706 319.554 41.1548C319.523 41.239 319.511 41.3288 319.518 41.4182C319.524 41.5075 319.55 41.5945 319.593 41.6732C319.635 41.752 319.694 41.8207 319.766 41.875L320.188 42.1953C320.621 42.5187 321.147 42.6934 321.688 42.6934C322.228 42.6934 322.754 42.5187 323.187 42.1953L324.188 41.4453L327.625 43.9453Z" fill="#2872B3"/>
<path d="M330.805 41.5156L328.875 42.4766L326.375 37.6953L328.328 36.7187C328.473 36.6448 328.642 36.6312 328.797 36.6809C328.952 36.7307 329.081 36.8398 329.156 36.9844L331.078 40.6641C331.117 40.7377 331.141 40.8184 331.148 40.9014C331.156 40.9844 331.146 41.0681 331.121 41.1474C331.095 41.2268 331.054 41.3002 331 41.3635C330.946 41.4267 330.879 41.4784 330.805 41.5156V41.5156Z" stroke="#2872B3" stroke-width="1.2" stroke-linecap="round" stroke-linejoin="round"/>
<path d="M315.125 42.3984L313.195 41.4297C313.121 41.3933 313.055 41.3423 313.001 41.2798C312.947 41.2172 312.905 41.1445 312.88 41.0657C312.854 40.987 312.845 40.904 312.852 40.8216C312.859 40.7391 312.883 40.659 312.922 40.5859L314.844 36.9062C314.919 36.7617 315.048 36.6523 315.202 36.6012C315.357 36.5501 315.526 36.5615 315.672 36.6328L317.625 37.6094L315.125 42.3984Z" stroke="#2872B3" stroke-width="1.2" stroke-linecap="round" stroke-linejoin="round"/>
<path d="M328.875 42.4766L327.625 43.9453L324.75 46.8203C324.672 46.8936 324.577 46.9468 324.473 46.9754C324.37 47.0039 324.261 47.007 324.156 46.9844L319.625 45.8516C319.542 45.8285 319.465 45.7886 319.398 45.7344L315.125 42.3984" stroke="#2872B3" stroke-width="1.2" stroke-linecap="round" stroke-linejoin="round"/>
<path d="M327.625 43.9453L324.188 41.4453L323.188 42.1953C322.754 42.5187 322.228 42.6934 321.688 42.6934C321.147 42.6934 320.621 42.5187 320.188 42.1953L319.766 41.875C319.694 41.8208 319.635 41.752 319.593 41.6732C319.55 41.5945 319.524 41.5076 319.518 41.4182C319.511 41.3288 319.523 41.2391 319.554 41.1548C319.585 41.0706 319.633 40.9939 319.695 40.9297L322.758 37.875C322.815 37.8178 322.884 37.7724 322.959 37.7416C323.034 37.7108 323.114 37.695 323.195 37.6953H326.375" stroke="#2872B3" stroke-width="1.2" stroke-linecap="round" stroke-linejoin="round"/>
<path d="M317.672 37.6094L321.68 36.4375C321.822 36.3966 321.974 36.4077 322.109 36.4687L324.813 37.6953" stroke="#2872B3" stroke-width="1.2" stroke-linecap="round" stroke-linejoin="round"/>
<path d="M308.207 70.5781V74H307.266V69.7734H308.164L308.207 70.5781ZM309.5 69.7461L309.492 70.6211C309.435 70.6107 309.372 70.6029 309.305 70.5977C309.24 70.5924 309.174 70.5898 309.109 70.5898C308.948 70.5898 308.806 70.6133 308.684 70.6602C308.561 70.7044 308.458 70.7695 308.375 70.8555C308.294 70.9388 308.232 71.0404 308.188 71.1602C308.143 71.2799 308.117 71.4141 308.109 71.5625L307.895 71.5781C307.895 71.3125 307.921 71.0664 307.973 70.8398C308.025 70.6133 308.103 70.4141 308.207 70.2422C308.314 70.0703 308.447 69.9362 308.605 69.8398C308.767 69.7435 308.953 69.6953 309.164 69.6953C309.221 69.6953 309.283 69.7005 309.348 69.7109C309.415 69.7214 309.466 69.7331 309.5 69.7461ZM311.875 74.0781C311.562 74.0781 311.28 74.0273 311.027 73.9258C310.777 73.8216 310.564 73.6771 310.387 73.4922C310.212 73.3073 310.078 73.0898 309.984 72.8398C309.891 72.5898 309.844 72.3203 309.844 72.0312V71.875C309.844 71.5443 309.892 71.2448 309.988 70.9766C310.085 70.7083 310.219 70.4792 310.391 70.2891C310.562 70.0964 310.766 69.9492 311 69.8477C311.234 69.7461 311.488 69.6953 311.762 69.6953C312.064 69.6953 312.328 69.7461 312.555 69.8477C312.781 69.9492 312.969 70.0924 313.117 70.2773C313.268 70.4596 313.38 70.6771 313.453 70.9297C313.529 71.1823 313.566 71.4609 313.566 71.7656V72.168H310.301V71.4922H312.637V71.418C312.632 71.2487 312.598 71.0898 312.535 70.9414C312.475 70.793 312.383 70.6732 312.258 70.582C312.133 70.4909 311.966 70.4453 311.758 70.4453C311.602 70.4453 311.462 70.4792 311.34 70.5469C311.22 70.612 311.12 70.707 311.039 70.832C310.958 70.957 310.896 71.1081 310.852 71.2852C310.81 71.4596 310.789 71.6562 310.789 71.875V72.0312C310.789 72.2161 310.814 72.388 310.863 72.5469C310.915 72.7031 310.991 72.8398 311.09 72.957C311.189 73.0742 311.309 73.1667 311.449 73.2344C311.59 73.2995 311.75 73.332 311.93 73.332C312.156 73.332 312.358 73.2865 312.535 73.1953C312.712 73.1042 312.866 72.9753 312.996 72.8086L313.492 73.2891C313.401 73.4219 313.283 73.5495 313.137 73.6719C312.991 73.7917 312.812 73.8893 312.602 73.9648C312.393 74.0404 312.151 74.0781 311.875 74.0781ZM316.672 72.8555C316.672 72.7617 316.648 72.6771 316.602 72.6016C316.555 72.5234 316.465 72.4531 316.332 72.3906C316.202 72.3281 316.009 72.2708 315.754 72.2188C315.53 72.1693 315.324 72.1107 315.137 72.043C314.952 71.9727 314.793 71.888 314.66 71.7891C314.527 71.6901 314.424 71.5729 314.352 71.4375C314.279 71.3021 314.242 71.1458 314.242 70.9688C314.242 70.7969 314.28 70.6341 314.355 70.4805C314.431 70.3268 314.539 70.1914 314.68 70.0742C314.82 69.957 314.991 69.8646 315.191 69.7969C315.395 69.7292 315.621 69.6953 315.871 69.6953C316.225 69.6953 316.529 69.7552 316.781 69.875C317.036 69.9922 317.232 70.1523 317.367 70.3555C317.503 70.556 317.57 70.7826 317.57 71.0352H316.629C316.629 70.9232 316.6 70.819 316.543 70.7227C316.488 70.6237 316.405 70.5443 316.293 70.4844C316.181 70.4219 316.04 70.3906 315.871 70.3906C315.71 70.3906 315.576 70.4167 315.469 70.4688C315.365 70.5182 315.286 70.5833 315.234 70.6641C315.185 70.7448 315.16 70.8333 315.16 70.9297C315.16 71 315.173 71.0638 315.199 71.1211C315.228 71.1758 315.275 71.2266 315.34 71.2734C315.405 71.3177 315.493 71.3594 315.605 71.3984C315.72 71.4375 315.863 71.4753 316.035 71.5117C316.358 71.5794 316.635 71.6667 316.867 71.7734C317.102 71.8776 317.281 72.013 317.406 72.1797C317.531 72.3438 317.594 72.5521 317.594 72.8047C317.594 72.9922 317.553 73.1641 317.473 73.3203C317.395 73.474 317.28 73.6081 317.129 73.7227C316.978 73.8346 316.797 73.9219 316.586 73.9844C316.378 74.0469 316.143 74.0781 315.883 74.0781C315.5 74.0781 315.176 74.0104 314.91 73.875C314.645 73.737 314.443 73.5612 314.305 73.3477C314.169 73.1315 314.102 72.9076 314.102 72.6758H315.012C315.022 72.8503 315.07 72.9896 315.156 73.0938C315.245 73.1953 315.354 73.2695 315.484 73.3164C315.617 73.3607 315.754 73.3828 315.895 73.3828C316.064 73.3828 316.206 73.3607 316.32 73.3164C316.435 73.2695 316.522 73.207 316.582 73.1289C316.642 73.0482 316.672 72.957 316.672 72.8555ZM318.238 71.9336V71.8438C318.238 71.5391 318.283 71.2565 318.371 70.9961C318.46 70.7331 318.587 70.5052 318.754 70.3125C318.923 70.1172 319.129 69.9661 319.371 69.8594C319.616 69.75 319.892 69.6953 320.199 69.6953C320.509 69.6953 320.785 69.75 321.027 69.8594C321.272 69.9661 321.479 70.1172 321.648 70.3125C321.818 70.5052 321.947 70.7331 322.035 70.9961C322.124 71.2565 322.168 71.5391 322.168 71.8438V71.9336C322.168 72.2383 322.124 72.5208 322.035 72.7812C321.947 73.0417 321.818 73.2695 321.648 73.4648C321.479 73.6576 321.273 73.8086 321.031 73.918C320.789 74.0247 320.514 74.0781 320.207 74.0781C319.897 74.0781 319.62 74.0247 319.375 73.918C319.133 73.8086 318.927 73.6576 318.758 73.4648C318.589 73.2695 318.46 73.0417 318.371 72.7812C318.283 72.5208 318.238 72.2383 318.238 71.9336ZM319.18 71.8438V71.9336C319.18 72.1237 319.199 72.3034 319.238 72.4727C319.277 72.6419 319.339 72.7904 319.422 72.918C319.505 73.0456 319.612 73.1458 319.742 73.2188C319.872 73.2917 320.027 73.3281 320.207 73.3281C320.382 73.3281 320.533 73.2917 320.66 73.2188C320.79 73.1458 320.897 73.0456 320.98 72.918C321.064 72.7904 321.125 72.6419 321.164 72.4727C321.206 72.3034 321.227 72.1237 321.227 71.9336V71.8438C321.227 71.6562 321.206 71.4792 321.164 71.3125C321.125 71.1432 321.062 70.9935 320.977 70.8633C320.893 70.7331 320.786 70.6315 320.656 70.5586C320.529 70.4831 320.376 70.4453 320.199 70.4453C320.022 70.4453 319.868 70.4831 319.738 70.5586C319.611 70.6315 319.505 70.7331 319.422 70.8633C319.339 70.9935 319.277 71.1432 319.238 71.3125C319.199 71.4792 319.18 71.6562 319.18 71.8438ZM323.965 68V74H323.02V68H323.965ZM326.371 73.2539L327.406 69.7734H328.383L326.914 74H326.305L326.371 73.2539ZM325.578 69.7734L326.633 73.2695L326.684 74H326.074L324.598 69.7734H325.578ZM330.773 74.0781C330.461 74.0781 330.178 74.0273 329.926 73.9258C329.676 73.8216 329.462 73.6771 329.285 73.4922C329.111 73.3073 328.977 73.0898 328.883 72.8398C328.789 72.5898 328.742 72.3203 328.742 72.0312V71.875C328.742 71.5443 328.79 71.2448 328.887 70.9766C328.983 70.7083 329.117 70.4792 329.289 70.2891C329.461 70.0964 329.664 69.9492 329.898 69.8477C330.133 69.7461 330.387 69.6953 330.66 69.6953C330.962 69.6953 331.227 69.7461 331.453 69.8477C331.68 69.9492 331.867 70.0924 332.016 70.2773C332.167 70.4596 332.279 70.6771 332.352 70.9297C332.427 71.1823 332.465 71.4609 332.465 71.7656V72.168H329.199V71.4922H331.535V71.418C331.53 71.2487 331.496 71.0898 331.434 70.9414C331.374 70.793 331.281 70.6732 331.156 70.582C331.031 70.4909 330.865 70.4453 330.656 70.4453C330.5 70.4453 330.361 70.4792 330.238 70.5469C330.118 70.612 330.018 70.707 329.938 70.832C329.857 70.957 329.794 71.1081 329.75 71.2852C329.708 71.4596 329.688 71.6562 329.688 71.875V72.0312C329.688 72.2161 329.712 72.388 329.762 72.5469C329.814 72.7031 329.889 72.8398 329.988 72.957C330.087 73.0742 330.207 73.1667 330.348 73.2344C330.488 73.2995 330.648 73.332 330.828 73.332C331.055 73.332 331.257 73.2865 331.434 73.1953C331.611 73.1042 331.764 72.9753 331.895 72.8086L332.391 73.2891C332.299 73.4219 332.181 73.5495 332.035 73.6719C331.889 73.7917 331.711 73.8893 331.5 73.9648C331.292 74.0404 331.049 74.0781 330.773 74.0781ZM335.777 73.125V68H336.723V74H335.867L335.777 73.125ZM333.027 71.9336V71.8516C333.027 71.5312 333.065 71.2396 333.141 70.9766C333.216 70.7109 333.326 70.4831 333.469 70.293C333.612 70.1003 333.786 69.9531 333.992 69.8516C334.198 69.7474 334.43 69.6953 334.688 69.6953C334.943 69.6953 335.167 69.7448 335.359 69.8438C335.552 69.9427 335.716 70.0846 335.852 70.2695C335.987 70.4518 336.095 70.6706 336.176 70.9258C336.257 71.1784 336.314 71.4596 336.348 71.7695V72.0312C336.314 72.3333 336.257 72.6094 336.176 72.8594C336.095 73.1094 335.987 73.3255 335.852 73.5078C335.716 73.6901 335.551 73.8307 335.355 73.9297C335.163 74.0286 334.938 74.0781 334.68 74.0781C334.424 74.0781 334.194 74.0247 333.988 73.918C333.785 73.8112 333.612 73.6615 333.469 73.4688C333.326 73.276 333.216 73.0495 333.141 72.7891C333.065 72.526 333.027 72.2409 333.027 71.9336ZM333.969 71.8516V71.9336C333.969 72.1263 333.986 72.306 334.02 72.4727C334.056 72.6393 334.112 72.7865 334.188 72.9141C334.263 73.0391 334.361 73.138 334.48 73.2109C334.603 73.2812 334.749 73.3164 334.918 73.3164C335.132 73.3164 335.307 73.2695 335.445 73.1758C335.583 73.082 335.691 72.9557 335.77 72.7969C335.85 72.6354 335.905 72.4557 335.934 72.2578V71.5508C335.918 71.3971 335.885 71.2539 335.836 71.1211C335.789 70.9883 335.725 70.8724 335.645 70.7734C335.564 70.6719 335.464 70.5938 335.344 70.5391C335.227 70.4818 335.087 70.4531 334.926 70.4531C334.754 70.4531 334.608 70.4896 334.488 70.5625C334.368 70.6354 334.27 70.7357 334.191 70.8633C334.116 70.9909 334.06 71.1393 334.023 71.3086C333.987 71.4779 333.969 71.6589 333.969 71.8516Z" fill="#343434"/>
</svg>
