<svg width="1000" height="145" viewBox="0 0 1000 145" fill="none" xmlns="http://www.w3.org/2000/svg">
<rect x="88" y="8" width="827" height="8" rx="4" fill="#F2F3F7"/>
<rect x="88" y="8" width="215" height="8" rx="4" fill="#2872B3"/>
<circle cx="92" cy="12" r="12" fill="#2872B3"/>
<path fill-rule="evenodd" clip-rule="evenodd" d="M98.3641 7.40733C98.5516 7.59486 98.6569 7.84917 98.6569 8.11433C98.6569 8.3795 98.5516 8.6338 98.3641 8.82133L90.8688 16.3167C90.7697 16.4157 90.6521 16.4943 90.5227 16.548C90.3933 16.6016 90.2545 16.6292 90.1144 16.6292C89.9743 16.6292 89.8356 16.6016 89.7062 16.548C89.5768 16.4943 89.4592 16.4157 89.3601 16.3167L85.6361 12.5933C85.5406 12.5011 85.4644 12.3907 85.412 12.2687C85.3596 12.1467 85.332 12.0155 85.3308 11.8827C85.3297 11.75 85.355 11.6183 85.4053 11.4954C85.4556 11.3725 85.5298 11.2608 85.6237 11.1669C85.7176 11.073 85.8292 10.9988 85.9521 10.9485C86.075 10.8982 86.2067 10.8729 86.3395 10.8741C86.4723 10.8752 86.6035 10.9028 86.7255 10.9552C86.8475 11.0076 86.9579 11.0838 87.0501 11.1793L90.1141 14.2433L96.9494 7.40733C97.0423 7.31441 97.1526 7.24069 97.2739 7.19039C97.3953 7.1401 97.5254 7.11421 97.6568 7.11421C97.7881 7.11421 97.9182 7.1401 98.0396 7.19039C98.161 7.24069 98.2712 7.31441 98.3641 7.40733Z" fill="#F2F3F7"/>
<circle cx="296" cy="12" r="11" fill="white" stroke="#2872B3" stroke-width="2"/>
<circle cx="500" cy="12" r="11" fill="#F2F3F7" stroke="#2872B3" stroke-width="2"/>
<circle cx="704" cy="12" r="11" fill="#F2F3F7" stroke="#2872B3" stroke-width="2"/>
<circle cx="908" cy="12" r="11" fill="#F2F3F7" stroke="#2872B3" stroke-width="2"/>
<rect width="200" height="70" transform="translate(0 75)" fill="white"/>
<path opacity="0.2" d="M94 102H90C89.7348 102 89.4804 101.895 89.2929 101.707C89.1054 101.52 89 101.265 89 101V81C89 80.7348 89.1054 80.4804 89.2929 80.2929C89.4804 80.1054 89.7348 80 90 80H94V102Z" fill="#2872B3"/>
<path d="M98 89H106" stroke="#2872B3" stroke-width="2" stroke-linecap="round" stroke-linejoin="round"/>
<path d="M98 93H106" stroke="#2872B3" stroke-width="2" stroke-linecap="round" stroke-linejoin="round"/>
<path d="M110 80H90C89.4477 80 89 80.4477 89 81V101C89 101.552 89.4477 102 90 102H110C110.552 102 111 101.552 111 101V81C111 80.4477 110.552 80 110 80Z" stroke="#2872B3" stroke-width="2" stroke-linecap="round" stroke-linejoin="round"/>
<path d="M94 80V102" stroke="#2872B3" stroke-width="2" stroke-linecap="round" stroke-linejoin="round"/>
<path d="M39.3871 124.608H44.7791C45.8991 124.608 46.8271 124.864 47.5471 125.376C48.2511 125.888 48.6191 126.688 48.6191 127.776C48.6191 128.464 48.4431 129.056 48.1231 129.536C47.7871 130.016 47.3231 130.368 46.7311 130.576C47.0031 130.64 47.2431 130.736 47.4511 130.864C47.6431 130.992 47.8031 131.136 47.9151 131.28C48.0271 131.44 48.1231 131.632 48.2031 131.856C48.2671 132.096 48.3151 132.304 48.3471 132.48C48.3791 132.656 48.3951 132.88 48.4271 133.168C48.4271 133.248 48.4431 133.392 48.4591 133.6C48.4751 133.824 48.4911 133.968 48.4911 134.032C48.4911 134.096 48.5071 134.224 48.5231 134.384C48.5391 134.56 48.5551 134.688 48.5711 134.752C48.5711 134.816 48.5871 134.928 48.6191 135.056C48.6511 135.184 48.6671 135.296 48.6991 135.36C48.7151 135.424 48.7471 135.504 48.7791 135.6C48.8111 135.696 48.8431 135.76 48.8911 135.824C48.9231 135.888 48.9711 135.952 49.0351 136H46.8911C46.8591 135.968 46.8271 135.92 46.7951 135.856C46.7631 135.792 46.7471 135.728 46.7311 135.664C46.6991 135.6 46.6831 135.536 46.6831 135.472C46.6671 135.408 46.6511 135.328 46.6351 135.232C46.6191 135.136 46.6191 135.04 46.6191 134.976L46.5871 134.688L46.5551 134.4C46.5551 134.336 46.5391 134.224 46.5391 134.064C46.5231 133.904 46.5231 133.792 46.5231 133.728C46.4591 132.8 46.2671 132.176 45.9311 131.824C45.5951 131.472 44.9551 131.296 44.0271 131.296H41.3711V136H39.3871V124.608ZM41.3711 126.24V129.808H44.0111C44.3951 129.808 44.7151 129.792 44.9871 129.744C45.2431 129.712 45.5151 129.632 45.7871 129.52C46.0591 129.408 46.2671 129.216 46.4111 128.96C46.5551 128.704 46.6351 128.384 46.6351 127.984C46.6351 127.632 46.5711 127.328 46.4431 127.088C46.3151 126.848 46.1231 126.672 45.8831 126.544C45.6431 126.432 45.4031 126.352 45.1471 126.304C44.8911 126.272 44.6031 126.24 44.2671 126.24H41.3711ZM57.8208 133.424C57.6128 134.32 57.1648 135.024 56.4928 135.52C55.8208 136.032 55.0048 136.272 54.0768 136.272C52.8288 136.272 51.8368 135.872 51.1008 135.072C50.3648 134.272 50.0128 133.232 50.0128 131.968C50.0128 130.688 50.3808 129.616 51.1328 128.768C51.8848 127.936 52.8448 127.504 54.0128 127.504C55.2128 127.504 56.1728 127.92 56.8768 128.752C57.5808 129.584 57.9328 130.704 57.9328 132.128V132.32H51.8368C51.8528 133.152 52.0608 133.808 52.4608 134.256C52.8448 134.704 53.4048 134.928 54.1088 134.928C54.6048 134.928 55.0048 134.816 55.3248 134.576C55.6448 134.336 55.8848 133.952 56.0768 133.424H57.8208ZM56.1088 131.104C56.0448 130.416 55.8368 129.872 55.4528 129.472C55.0688 129.072 54.5888 128.864 53.9968 128.864C53.3888 128.864 52.9088 129.056 52.5408 129.44C52.1728 129.824 51.9488 130.384 51.8688 131.104H56.1088ZM61.0634 127.744V128.848C61.6074 127.952 62.5034 127.504 63.7514 127.504C64.8874 127.504 65.7994 127.904 66.4874 128.704C67.1594 129.504 67.5114 130.576 67.5114 131.904C67.5114 133.216 67.1754 134.256 66.5034 135.04C65.8314 135.824 64.9514 136.208 63.8474 136.208C62.6634 136.208 61.7674 135.776 61.1594 134.912V139.056H59.3514V127.744H61.0634ZM63.3834 128.976C62.6634 128.976 62.1034 129.232 61.7034 129.744C61.2874 130.256 61.0954 130.976 61.0954 131.872C61.0954 132.768 61.2874 133.472 61.7034 133.984C62.1194 134.496 62.6794 134.752 63.4154 134.752C64.1034 134.752 64.6474 134.496 65.0634 133.984C65.4634 133.472 65.6714 132.784 65.6714 131.904C65.6714 131.008 65.4634 130.304 65.0474 129.776C64.6314 129.248 64.0874 128.976 63.3834 128.976ZM72.9246 127.504C74.1726 127.504 75.1806 127.904 75.9326 128.688C76.6686 129.488 77.0526 130.544 77.0526 131.872C77.0526 133.216 76.6686 134.288 75.9326 135.072C75.1966 135.872 74.1886 136.256 72.9246 136.256C71.6286 136.256 70.6046 135.872 69.8526 135.072C69.0846 134.288 68.7166 133.216 68.7166 131.872C68.7166 130.544 69.0846 129.488 69.8526 128.688C70.6206 127.904 71.6446 127.504 72.9246 127.504ZM72.8926 128.944C72.1566 128.944 71.5966 129.216 71.1806 129.728C70.7646 130.256 70.5566 130.976 70.5566 131.872C70.5566 132.8 70.7646 133.536 71.1806 134.048C71.5966 134.576 72.1726 134.832 72.9086 134.832C73.6126 134.832 74.1726 134.576 74.5886 134.048C75.0046 133.52 75.2126 132.784 75.2126 131.856C75.2126 130.96 75.0046 130.24 74.5886 129.728C74.1726 129.216 73.6126 128.944 72.8926 128.944ZM83.257 127.584V129.328C82.937 129.296 82.713 129.28 82.617 129.28C81.017 129.28 80.233 130.32 80.233 132.368V136H78.425V127.744H80.137V129.392C80.713 128.176 81.641 127.552 82.905 127.552L83.257 127.584ZM88.242 127.744V129.072H86.578V133.424C86.578 133.68 86.578 133.872 86.594 133.968C86.594 134.064 86.626 134.176 86.69 134.304C86.738 134.432 86.834 134.512 86.962 134.544C87.09 134.592 87.282 134.608 87.522 134.608C87.81 134.608 88.05 134.608 88.242 134.576V136.016C87.874 136.064 87.458 136.08 87.01 136.08C86.69 136.08 86.402 136.064 86.162 136.016C85.922 135.968 85.73 135.904 85.57 135.84C85.41 135.776 85.266 135.68 85.17 135.52C85.058 135.36 84.978 135.232 84.914 135.136C84.85 135.04 84.818 134.848 84.786 134.592C84.754 134.336 84.754 134.144 84.754 134.016V133.312V133.216V133.12V133.008V129.072H83.378V127.744H84.754V125.264H86.578V127.744H88.242ZM94.2153 124.608H99.6073C100.727 124.608 101.655 124.864 102.375 125.376C103.079 125.888 103.447 126.688 103.447 127.776C103.447 128.464 103.271 129.056 102.951 129.536C102.615 130.016 102.151 130.368 101.559 130.576C101.831 130.64 102.071 130.736 102.279 130.864C102.471 130.992 102.631 131.136 102.743 131.28C102.855 131.44 102.951 131.632 103.031 131.856C103.095 132.096 103.143 132.304 103.175 132.48C103.207 132.656 103.223 132.88 103.255 133.168C103.255 133.248 103.271 133.392 103.287 133.6C103.303 133.824 103.319 133.968 103.319 134.032C103.319 134.096 103.335 134.224 103.351 134.384C103.367 134.56 103.383 134.688 103.399 134.752C103.399 134.816 103.415 134.928 103.447 135.056C103.479 135.184 103.495 135.296 103.527 135.36C103.543 135.424 103.575 135.504 103.607 135.6C103.639 135.696 103.671 135.76 103.719 135.824C103.751 135.888 103.799 135.952 103.863 136H101.719C101.687 135.968 101.655 135.92 101.623 135.856C101.591 135.792 101.575 135.728 101.559 135.664C101.527 135.6 101.511 135.536 101.511 135.472C101.495 135.408 101.479 135.328 101.463 135.232C101.447 135.136 101.447 135.04 101.447 134.976L101.415 134.688L101.383 134.4C101.383 134.336 101.367 134.224 101.367 134.064C101.351 133.904 101.351 133.792 101.351 133.728C101.287 132.8 101.095 132.176 100.759 131.824C100.423 131.472 99.7833 131.296 98.8553 131.296H96.1993V136H94.2153V124.608ZM96.1993 126.24V129.808H98.8393C99.2233 129.808 99.5433 129.792 99.8153 129.744C100.071 129.712 100.343 129.632 100.615 129.52C100.887 129.408 101.095 129.216 101.239 128.96C101.383 128.704 101.463 128.384 101.463 127.984C101.463 127.632 101.399 127.328 101.271 127.088C101.143 126.848 100.951 126.672 100.711 126.544C100.471 126.432 100.231 126.352 99.9753 126.304C99.7193 126.272 99.4313 126.24 99.0953 126.24H96.1993ZM112.649 133.424C112.441 134.32 111.993 135.024 111.321 135.52C110.649 136.032 109.833 136.272 108.905 136.272C107.657 136.272 106.665 135.872 105.929 135.072C105.193 134.272 104.841 133.232 104.841 131.968C104.841 130.688 105.209 129.616 105.961 128.768C106.713 127.936 107.673 127.504 108.841 127.504C110.041 127.504 111.001 127.92 111.705 128.752C112.409 129.584 112.761 130.704 112.761 132.128V132.32H106.665C106.681 133.152 106.889 133.808 107.289 134.256C107.673 134.704 108.233 134.928 108.937 134.928C109.433 134.928 109.833 134.816 110.153 134.576C110.473 134.336 110.713 133.952 110.905 133.424H112.649ZM110.937 131.104C110.873 130.416 110.665 129.872 110.281 129.472C109.897 129.072 109.417 128.864 108.825 128.864C108.217 128.864 107.737 129.056 107.369 129.44C107.001 129.824 106.777 130.384 106.697 131.104H110.937ZM121.635 132.88C121.508 133.904 121.092 134.704 120.42 135.312C119.732 135.92 118.868 136.208 117.844 136.208C116.596 136.208 115.62 135.824 114.884 135.04C114.148 134.256 113.78 133.232 113.78 131.952C113.78 130.592 114.148 129.504 114.884 128.704C115.62 127.904 116.628 127.488 117.891 127.488C118.948 127.488 119.796 127.76 120.436 128.288C121.076 128.832 121.46 129.568 121.572 130.512H119.764C119.652 130 119.444 129.6 119.124 129.312C118.804 129.04 118.388 128.896 117.908 128.896C117.204 128.896 116.644 129.168 116.244 129.696C115.828 130.224 115.636 130.944 115.636 131.856C115.636 132.784 115.828 133.488 116.212 134C116.596 134.512 117.14 134.768 117.844 134.768C118.388 134.768 118.82 134.608 119.172 134.288C119.524 133.968 119.748 133.488 119.844 132.88H121.635ZM130.43 133.424C130.222 134.32 129.774 135.024 129.102 135.52C128.43 136.032 127.614 136.272 126.686 136.272C125.438 136.272 124.446 135.872 123.71 135.072C122.974 134.272 122.622 133.232 122.622 131.968C122.622 130.688 122.99 129.616 123.742 128.768C124.494 127.936 125.454 127.504 126.622 127.504C127.822 127.504 128.782 127.92 129.486 128.752C130.19 129.584 130.542 130.704 130.542 132.128V132.32H124.446C124.462 133.152 124.67 133.808 125.07 134.256C125.454 134.704 126.014 134.928 126.718 134.928C127.214 134.928 127.614 134.816 127.934 134.576C128.254 134.336 128.494 133.952 128.686 133.424H130.43ZM128.718 131.104C128.654 130.416 128.446 129.872 128.062 129.472C127.678 129.072 127.198 128.864 126.606 128.864C125.998 128.864 125.518 129.056 125.15 129.44C124.782 129.824 124.558 130.384 124.478 131.104H128.718ZM133.801 124.56V126.352H131.977V124.56H133.801ZM133.801 127.744V136H131.977V127.744H133.801ZM134.956 127.744H136.94L139.052 134.096L141.084 127.744H142.972L140.012 136.016H137.964L134.956 127.744ZM151.477 133.424C151.269 134.32 150.821 135.024 150.149 135.52C149.477 136.032 148.661 136.272 147.733 136.272C146.485 136.272 145.493 135.872 144.757 135.072C144.021 134.272 143.669 133.232 143.669 131.968C143.669 130.688 144.037 129.616 144.789 128.768C145.541 127.936 146.501 127.504 147.669 127.504C148.869 127.504 149.829 127.92 150.533 128.752C151.237 129.584 151.589 130.704 151.589 132.128V132.32H145.493C145.509 133.152 145.717 133.808 146.117 134.256C146.501 134.704 147.061 134.928 147.765 134.928C148.261 134.928 148.661 134.816 148.981 134.576C149.301 134.336 149.541 133.952 149.733 133.424H151.477ZM149.765 131.104C149.701 130.416 149.493 129.872 149.109 129.472C148.725 129.072 148.245 128.864 147.653 128.864C147.045 128.864 146.565 129.056 146.197 129.44C145.829 129.824 145.605 130.384 145.525 131.104H149.765ZM160.8 124.608V136H159.088V134.864C158.56 135.776 157.68 136.224 156.448 136.224C155.28 136.224 154.352 135.84 153.664 135.04C152.976 134.256 152.64 133.2 152.64 131.856C152.64 130.544 152.976 129.488 153.648 128.704C154.32 127.92 155.232 127.52 156.384 127.52C157.536 127.52 158.416 127.952 159.008 128.816V124.608H160.8ZM156.72 128.992C156.016 128.992 155.472 129.248 155.072 129.76C154.672 130.272 154.48 130.96 154.48 131.824C154.48 132.736 154.672 133.456 155.088 133.968C155.504 134.496 156.064 134.752 156.784 134.752C157.488 134.752 158.048 134.496 158.448 133.984C158.848 133.472 159.056 132.768 159.056 131.856C159.056 130.96 158.848 130.256 158.432 129.744C158.016 129.248 157.456 128.992 156.72 128.992Z" fill="#343434"/>
<rect width="200" height="70" transform="translate(200 75)" fill="white"/>
<path d="M298.347 92.6533C295.227 89.5333 295.227 84.4667 298.347 81.3333C301.467 78.2133 306.533 78.2133 309.667 81.3333C312.787 84.4533 312.787 89.52 309.667 92.6533C306.547 95.7733 301.48 95.7733 298.347 92.6533Z" fill="#2872B3" fill-opacity="0.2" stroke="#2872B3" stroke-width="2" stroke-linecap="round" stroke-linejoin="round"/>
<path d="M298 93L288 103" stroke="#2872B3" stroke-width="2" stroke-linecap="round" stroke-linejoin="round"/>
<path d="M258.878 124.608V131.584C258.878 134.688 257.326 136.224 254.238 136.224C252.622 136.224 251.438 135.84 250.67 135.072C249.902 134.304 249.534 133.136 249.534 131.552V124.608H251.534V131.952C251.534 133.712 252.446 134.576 254.27 134.576C254.814 134.576 255.278 134.512 255.63 134.352C255.982 134.208 256.254 133.984 256.43 133.664C256.59 133.36 256.718 133.024 256.782 132.672C256.846 132.32 256.878 131.872 256.878 131.328V124.608H258.878ZM262.681 127.744V128.96C263.337 128 264.249 127.52 265.417 127.52C266.345 127.52 267.049 127.776 267.513 128.288C267.977 128.8 268.217 129.536 268.217 130.496V136H266.393V131.2C266.393 130.88 266.377 130.608 266.345 130.384C266.313 130.16 266.233 129.936 266.137 129.712C266.041 129.488 265.881 129.328 265.657 129.216C265.433 129.104 265.145 129.04 264.793 129.04C263.449 129.04 262.777 129.888 262.777 131.552V136H260.953V127.744H262.681ZM277.948 124.608V136H276.236V134.864C275.708 135.776 274.828 136.224 273.596 136.224C272.428 136.224 271.5 135.84 270.812 135.04C270.124 134.256 269.788 133.2 269.788 131.856C269.788 130.544 270.124 129.488 270.796 128.704C271.468 127.92 272.38 127.52 273.532 127.52C274.684 127.52 275.564 127.952 276.156 128.816V124.608H277.948ZM273.868 128.992C273.164 128.992 272.62 129.248 272.22 129.76C271.82 130.272 271.628 130.96 271.628 131.824C271.628 132.736 271.82 133.456 272.236 133.968C272.652 134.496 273.212 134.752 273.932 134.752C274.636 134.752 275.196 134.496 275.596 133.984C275.996 133.472 276.204 132.768 276.204 131.856C276.204 130.96 275.996 130.256 275.58 129.744C275.164 129.248 274.604 128.992 273.868 128.992ZM287.297 133.424C287.089 134.32 286.641 135.024 285.969 135.52C285.297 136.032 284.481 136.272 283.553 136.272C282.305 136.272 281.313 135.872 280.577 135.072C279.841 134.272 279.489 133.232 279.489 131.968C279.489 130.688 279.857 129.616 280.609 128.768C281.361 127.936 282.321 127.504 283.489 127.504C284.689 127.504 285.649 127.92 286.353 128.752C287.057 129.584 287.409 130.704 287.409 132.128V132.32H281.313C281.329 133.152 281.537 133.808 281.937 134.256C282.321 134.704 282.881 134.928 283.585 134.928C284.081 134.928 284.481 134.816 284.801 134.576C285.121 134.336 285.361 133.952 285.553 133.424H287.297ZM285.585 131.104C285.521 130.416 285.313 129.872 284.929 129.472C284.545 129.072 284.065 128.864 283.473 128.864C282.865 128.864 282.385 129.056 282.017 129.44C281.649 129.824 281.425 130.384 281.345 131.104H285.585ZM293.468 127.584V129.328C293.148 129.296 292.924 129.28 292.828 129.28C291.228 129.28 290.444 130.32 290.444 132.368V136H288.636V127.744H290.348V129.392C290.924 128.176 291.852 127.552 293.116 127.552L293.468 127.584ZM299.098 124.608H304.49C305.61 124.608 306.538 124.864 307.258 125.376C307.962 125.888 308.33 126.688 308.33 127.776C308.33 128.464 308.154 129.056 307.834 129.536C307.498 130.016 307.034 130.368 306.442 130.576C306.714 130.64 306.954 130.736 307.162 130.864C307.354 130.992 307.514 131.136 307.626 131.28C307.738 131.44 307.834 131.632 307.914 131.856C307.978 132.096 308.026 132.304 308.058 132.48C308.09 132.656 308.106 132.88 308.138 133.168C308.138 133.248 308.154 133.392 308.17 133.6C308.186 133.824 308.202 133.968 308.202 134.032C308.202 134.096 308.218 134.224 308.234 134.384C308.25 134.56 308.266 134.688 308.282 134.752C308.282 134.816 308.298 134.928 308.33 135.056C308.362 135.184 308.378 135.296 308.41 135.36C308.426 135.424 308.458 135.504 308.49 135.6C308.522 135.696 308.554 135.76 308.602 135.824C308.634 135.888 308.682 135.952 308.746 136H306.602C306.57 135.968 306.538 135.92 306.506 135.856C306.474 135.792 306.458 135.728 306.442 135.664C306.41 135.6 306.394 135.536 306.394 135.472C306.378 135.408 306.362 135.328 306.346 135.232C306.33 135.136 306.33 135.04 306.33 134.976L306.298 134.688L306.266 134.4C306.266 134.336 306.25 134.224 306.25 134.064C306.234 133.904 306.234 133.792 306.234 133.728C306.17 132.8 305.978 132.176 305.642 131.824C305.306 131.472 304.666 131.296 303.738 131.296H301.082V136H299.098V124.608ZM301.082 126.24V129.808H303.722C304.106 129.808 304.426 129.792 304.698 129.744C304.954 129.712 305.226 129.632 305.498 129.52C305.77 129.408 305.978 129.216 306.122 128.96C306.266 128.704 306.346 128.384 306.346 127.984C306.346 127.632 306.282 127.328 306.154 127.088C306.026 126.848 305.834 126.672 305.594 126.544C305.354 126.432 305.114 126.352 304.858 126.304C304.602 126.272 304.314 126.24 303.978 126.24H301.082ZM317.532 133.424C317.324 134.32 316.876 135.024 316.204 135.52C315.532 136.032 314.716 136.272 313.788 136.272C312.54 136.272 311.548 135.872 310.812 135.072C310.076 134.272 309.724 133.232 309.724 131.968C309.724 130.688 310.092 129.616 310.844 128.768C311.596 127.936 312.556 127.504 313.724 127.504C314.924 127.504 315.884 127.92 316.588 128.752C317.292 129.584 317.644 130.704 317.644 132.128V132.32H311.548C311.564 133.152 311.772 133.808 312.172 134.256C312.556 134.704 313.116 134.928 313.82 134.928C314.316 134.928 314.716 134.816 315.036 134.576C315.356 134.336 315.596 133.952 315.788 133.424H317.532ZM315.82 131.104C315.756 130.416 315.548 129.872 315.164 129.472C314.78 129.072 314.3 128.864 313.708 128.864C313.1 128.864 312.62 129.056 312.252 129.44C311.884 129.824 311.66 130.384 311.58 131.104H315.82ZM318.198 127.744H320.182L322.294 134.096L324.326 127.744H326.214L323.254 136.016H321.206L318.198 127.744ZM329.199 124.56V126.352H327.375V124.56H329.199ZM329.199 127.744V136H327.375V127.744H329.199ZM338.579 133.424C338.371 134.32 337.923 135.024 337.251 135.52C336.579 136.032 335.763 136.272 334.835 136.272C333.587 136.272 332.595 135.872 331.859 135.072C331.123 134.272 330.771 133.232 330.771 131.968C330.771 130.688 331.139 129.616 331.891 128.768C332.643 127.936 333.603 127.504 334.771 127.504C335.971 127.504 336.931 127.92 337.635 128.752C338.339 129.584 338.691 130.704 338.691 132.128V132.32H332.595C332.611 133.152 332.819 133.808 333.219 134.256C333.603 134.704 334.163 134.928 334.867 134.928C335.363 134.928 335.763 134.816 336.083 134.576C336.403 134.336 336.643 133.952 336.835 133.424H338.579ZM336.867 131.104C336.803 130.416 336.595 129.872 336.211 129.472C335.827 129.072 335.347 128.864 334.755 128.864C334.147 128.864 333.667 129.056 333.299 129.44C332.931 129.824 332.707 130.384 332.627 131.104H336.867ZM339.309 127.744H341.245L342.877 133.936L344.429 127.744H346.269L347.789 133.936L349.501 127.744H351.357L348.749 136H346.877L345.325 129.872L343.789 136H341.869L339.309 127.744Z" fill="#343434"/>
<rect width="200" height="70" transform="translate(400 75)" fill="white"/>
<path d="M512 81H502V79C502 78.4696 501.789 77.9609 501.414 77.5858C501.039 77.2107 500.53 77 500 77H488C487.47 77 486.961 77.2107 486.586 77.5858C486.211 77.9609 486 78.4696 486 79V99C486 99.5304 486.211 100.039 486.586 100.414C486.961 100.789 487.47 101 488 101H498V103C498 103.53 498.211 104.039 498.586 104.414C498.961 104.789 499.47 105 500 105H512C512.53 105 513.039 104.789 513.414 104.414C513.789 104.039 514 103.53 514 103V83C514 82.4696 513.789 81.9609 513.414 81.5858C513.039 81.2107 512.53 81 512 81ZM488 90H494.17L491.59 92.59L493 94L498 89L493 84L491.59 85.41L494.17 88H488V79H500V99H488V90ZM500 103V101C500.53 101 501.039 100.789 501.414 100.414C501.789 100.039 502 99.5304 502 99V83H512V92H505.83L508.41 89.41L507 88L502 93L507 98L508.41 96.59L505.83 94H512V103H500Z" fill="#2872B3"/>
<path d="M452.185 124.608H457.129C458.345 124.608 459.321 124.912 460.025 125.488C460.729 126.064 461.097 126.928 461.097 128.08C461.097 129.168 460.761 130.032 460.105 130.672C459.433 131.312 458.537 131.616 457.401 131.616H454.185V136H452.185V124.608ZM454.185 126.272V130H456.969C458.409 130 459.145 129.376 459.145 128.128C459.145 126.896 458.361 126.272 456.793 126.272H454.185ZM462.505 130.288C462.697 128.432 463.897 127.488 466.121 127.488C467.145 127.488 467.977 127.696 468.585 128.096C469.193 128.512 469.513 129.136 469.513 129.984V134.176C469.513 134.416 469.529 134.576 469.593 134.656C469.657 134.752 469.769 134.784 469.945 134.784C470.073 134.784 470.201 134.784 470.361 134.752V136.032C469.881 136.16 469.497 136.208 469.177 136.208C468.393 136.208 467.945 135.888 467.833 135.216C467.129 135.888 466.169 136.208 464.937 136.208C464.073 136.208 463.401 136 462.905 135.552C462.393 135.104 462.153 134.512 462.153 133.744C462.153 133.52 462.169 133.296 462.233 133.088C462.281 132.896 462.345 132.72 462.409 132.56C462.473 132.416 462.585 132.272 462.745 132.144C462.905 132.016 463.033 131.92 463.129 131.824C463.225 131.744 463.401 131.664 463.625 131.584C463.849 131.52 464.025 131.456 464.137 131.424C464.249 131.392 464.441 131.344 464.729 131.296C465.001 131.264 465.177 131.232 465.273 131.216C465.369 131.2 465.561 131.168 465.849 131.136C466.489 131.056 466.937 130.992 467.177 130.928C467.401 130.864 467.561 130.784 467.657 130.656C467.721 130.576 467.769 130.384 467.769 130.064C467.769 129.232 467.193 128.816 466.073 128.816C465.465 128.816 465.033 128.928 464.761 129.152C464.473 129.376 464.297 129.76 464.233 130.288H462.505ZM467.753 131.856C467.609 131.936 467.449 132 467.273 132.064C467.081 132.128 466.937 132.16 466.825 132.176C466.713 132.192 466.537 132.208 466.297 132.24C466.057 132.272 465.897 132.304 465.833 132.304C465.609 132.336 465.433 132.368 465.305 132.4C465.177 132.432 465.017 132.464 464.825 132.528C464.633 132.592 464.489 132.672 464.393 132.768C464.297 132.864 464.201 132.976 464.137 133.136C464.057 133.296 464.025 133.472 464.025 133.68C464.025 134.08 464.153 134.384 464.409 134.592C464.665 134.816 465.033 134.912 465.513 134.912C466.313 134.912 466.937 134.704 467.385 134.256C467.625 134.016 467.753 133.536 467.753 132.832V131.856ZM476.148 127.584V129.328C475.828 129.296 475.604 129.28 475.508 129.28C473.908 129.28 473.124 130.32 473.124 132.368V136H471.316V127.744H473.028V129.392C473.604 128.176 474.532 127.552 475.796 127.552L476.148 127.584ZM481.133 127.744V129.072H479.469V133.424C479.469 133.68 479.469 133.872 479.485 133.968C479.485 134.064 479.517 134.176 479.581 134.304C479.629 134.432 479.725 134.512 479.853 134.544C479.981 134.592 480.173 134.608 480.413 134.608C480.701 134.608 480.941 134.608 481.133 134.576V136.016C480.765 136.064 480.349 136.08 479.901 136.08C479.581 136.08 479.293 136.064 479.053 136.016C478.813 135.968 478.621 135.904 478.461 135.84C478.301 135.776 478.157 135.68 478.061 135.52C477.949 135.36 477.869 135.232 477.805 135.136C477.741 135.04 477.709 134.848 477.677 134.592C477.645 134.336 477.645 134.144 477.645 134.016V133.312V133.216V133.12V133.008V129.072H476.269V127.744H477.645V125.264H479.469V127.744H481.133ZM484.301 124.56V126.352H482.477V124.56H484.301ZM484.301 127.744V136H482.477V127.744H484.301ZM486.208 130.288C486.4 128.432 487.6 127.488 489.824 127.488C490.848 127.488 491.68 127.696 492.288 128.096C492.896 128.512 493.216 129.136 493.216 129.984V134.176C493.216 134.416 493.232 134.576 493.296 134.656C493.36 134.752 493.472 134.784 493.648 134.784C493.776 134.784 493.904 134.784 494.064 134.752V136.032C493.584 136.16 493.2 136.208 492.88 136.208C492.096 136.208 491.648 135.888 491.536 135.216C490.832 135.888 489.872 136.208 488.64 136.208C487.776 136.208 487.104 136 486.608 135.552C486.096 135.104 485.856 134.512 485.856 133.744C485.856 133.52 485.872 133.296 485.936 133.088C485.984 132.896 486.048 132.72 486.112 132.56C486.176 132.416 486.288 132.272 486.448 132.144C486.608 132.016 486.736 131.92 486.832 131.824C486.928 131.744 487.104 131.664 487.328 131.584C487.552 131.52 487.728 131.456 487.84 131.424C487.952 131.392 488.144 131.344 488.432 131.296C488.704 131.264 488.88 131.232 488.976 131.216C489.072 131.2 489.264 131.168 489.552 131.136C490.192 131.056 490.64 130.992 490.88 130.928C491.104 130.864 491.264 130.784 491.36 130.656C491.424 130.576 491.472 130.384 491.472 130.064C491.472 129.232 490.896 128.816 489.776 128.816C489.168 128.816 488.736 128.928 488.464 129.152C488.176 129.376 488 129.76 487.936 130.288H486.208ZM491.456 131.856C491.312 131.936 491.152 132 490.976 132.064C490.784 132.128 490.64 132.16 490.528 132.176C490.416 132.192 490.24 132.208 490 132.24C489.76 132.272 489.6 132.304 489.536 132.304C489.312 132.336 489.136 132.368 489.008 132.4C488.88 132.432 488.72 132.464 488.528 132.528C488.336 132.592 488.192 132.672 488.096 132.768C488 132.864 487.904 132.976 487.84 133.136C487.76 133.296 487.728 133.472 487.728 133.68C487.728 134.08 487.856 134.384 488.112 134.592C488.368 134.816 488.736 134.912 489.216 134.912C490.016 134.912 490.64 134.704 491.088 134.256C491.328 134.016 491.456 133.536 491.456 132.832V131.856ZM497.051 124.608V136H495.243V124.608H497.051ZM515.571 124.608V136H513.667V127.216L510.499 136H508.867L505.619 127.216V136H503.731V124.608H506.531L509.715 133.52L512.787 124.608H515.571ZM517.63 130.288C517.822 128.432 519.022 127.488 521.246 127.488C522.27 127.488 523.102 127.696 523.71 128.096C524.318 128.512 524.638 129.136 524.638 129.984V134.176C524.638 134.416 524.654 134.576 524.718 134.656C524.782 134.752 524.894 134.784 525.07 134.784C525.198 134.784 525.326 134.784 525.486 134.752V136.032C525.006 136.16 524.622 136.208 524.302 136.208C523.518 136.208 523.07 135.888 522.958 135.216C522.254 135.888 521.294 136.208 520.062 136.208C519.198 136.208 518.526 136 518.03 135.552C517.518 135.104 517.278 134.512 517.278 133.744C517.278 133.52 517.294 133.296 517.358 133.088C517.406 132.896 517.47 132.72 517.534 132.56C517.598 132.416 517.71 132.272 517.87 132.144C518.03 132.016 518.158 131.92 518.254 131.824C518.35 131.744 518.526 131.664 518.75 131.584C518.974 131.52 519.15 131.456 519.262 131.424C519.374 131.392 519.566 131.344 519.854 131.296C520.126 131.264 520.302 131.232 520.398 131.216C520.494 131.2 520.686 131.168 520.974 131.136C521.614 131.056 522.062 130.992 522.302 130.928C522.526 130.864 522.686 130.784 522.782 130.656C522.846 130.576 522.894 130.384 522.894 130.064C522.894 129.232 522.318 128.816 521.198 128.816C520.59 128.816 520.158 128.928 519.886 129.152C519.598 129.376 519.422 129.76 519.358 130.288H517.63ZM522.878 131.856C522.734 131.936 522.574 132 522.398 132.064C522.206 132.128 522.062 132.16 521.95 132.176C521.838 132.192 521.662 132.208 521.422 132.24C521.182 132.272 521.022 132.304 520.958 132.304C520.734 132.336 520.558 132.368 520.43 132.4C520.302 132.432 520.142 132.464 519.95 132.528C519.758 132.592 519.614 132.672 519.518 132.768C519.422 132.864 519.326 132.976 519.262 133.136C519.182 133.296 519.15 133.472 519.15 133.68C519.15 134.08 519.278 134.384 519.534 134.592C519.79 134.816 520.158 134.912 520.638 134.912C521.438 134.912 522.062 134.704 522.51 134.256C522.75 134.016 522.878 133.536 522.878 132.832V131.856ZM530.633 127.744V129.072H528.969V133.424C528.969 133.68 528.969 133.872 528.985 133.968C528.985 134.064 529.017 134.176 529.081 134.304C529.129 134.432 529.225 134.512 529.353 134.544C529.481 134.592 529.673 134.608 529.913 134.608C530.201 134.608 530.441 134.608 530.633 134.576V136.016C530.265 136.064 529.849 136.08 529.401 136.08C529.081 136.08 528.793 136.064 528.553 136.016C528.313 135.968 528.121 135.904 527.961 135.84C527.801 135.776 527.657 135.68 527.561 135.52C527.449 135.36 527.369 135.232 527.305 135.136C527.241 135.04 527.209 134.848 527.177 134.592C527.145 134.336 527.145 134.144 527.145 134.016V133.312V133.216V133.12V133.008V129.072H525.769V127.744H527.145V125.264H528.969V127.744H530.633ZM539.417 132.88C539.289 133.904 538.873 134.704 538.201 135.312C537.513 135.92 536.649 136.208 535.625 136.208C534.377 136.208 533.401 135.824 532.665 135.04C531.929 134.256 531.561 133.232 531.561 131.952C531.561 130.592 531.929 129.504 532.665 128.704C533.401 127.904 534.409 127.488 535.673 127.488C536.729 127.488 537.577 127.76 538.217 128.288C538.857 128.832 539.241 129.568 539.353 130.512H537.545C537.433 130 537.225 129.6 536.905 129.312C536.585 129.04 536.169 128.896 535.689 128.896C534.985 128.896 534.425 129.168 534.025 129.696C533.609 130.224 533.417 130.944 533.417 131.856C533.417 132.784 533.609 133.488 533.993 134C534.377 134.512 534.921 134.768 535.625 134.768C536.169 134.768 536.601 134.608 536.953 134.288C537.305 133.968 537.529 133.488 537.625 132.88H539.417ZM542.643 124.608V128.88C543.251 127.984 544.115 127.536 545.251 127.536C546.147 127.536 546.835 127.792 547.347 128.272C547.843 128.752 548.099 129.472 548.099 130.4V136H546.259V130.992C546.259 130.368 546.147 129.888 545.923 129.552C545.699 129.232 545.283 129.056 544.659 129.056C543.955 129.056 543.443 129.296 543.123 129.744C542.803 130.208 542.643 130.816 542.643 131.568V136H540.835V124.608H542.643Z" fill="#343434"/>
<rect width="200" height="70" transform="translate(600 75)" fill="white"/>
<path d="M695 90L699 94L706 87M688.464 97C687.092 94.3666 686.663 91.3428 687.248 88.4317C687.833 85.5206 689.397 82.8975 691.68 80.9988C693.963 79.1001 696.828 78.0401 699.797 77.9952C702.766 77.9503 705.661 78.9232 708 80.752L703 83M698 99L691.84 101.12C694.259 103.072 697.298 104.093 700.405 103.997C703.512 103.901 706.482 102.695 708.776 100.598C711.07 98.5002 712.537 95.6499 712.91 92.5638C713.283 89.4776 712.538 86.3599 710.81 83.776" stroke="#2872B3" stroke-width="2"/>
<path d="M680.446 124.608V136H678.542V127.216L675.374 136H673.742L670.494 127.216V136H668.606V124.608H671.406L674.59 133.52L677.662 124.608H680.446ZM682.505 130.288C682.697 128.432 683.897 127.488 686.121 127.488C687.145 127.488 687.977 127.696 688.585 128.096C689.193 128.512 689.513 129.136 689.513 129.984V134.176C689.513 134.416 689.529 134.576 689.593 134.656C689.657 134.752 689.769 134.784 689.945 134.784C690.073 134.784 690.201 134.784 690.361 134.752V136.032C689.881 136.16 689.497 136.208 689.177 136.208C688.393 136.208 687.945 135.888 687.833 135.216C687.129 135.888 686.169 136.208 684.937 136.208C684.073 136.208 683.401 136 682.905 135.552C682.393 135.104 682.153 134.512 682.153 133.744C682.153 133.52 682.169 133.296 682.233 133.088C682.281 132.896 682.345 132.72 682.409 132.56C682.473 132.416 682.585 132.272 682.745 132.144C682.905 132.016 683.033 131.92 683.129 131.824C683.225 131.744 683.401 131.664 683.625 131.584C683.849 131.52 684.025 131.456 684.137 131.424C684.249 131.392 684.441 131.344 684.729 131.296C685.001 131.264 685.177 131.232 685.273 131.216C685.369 131.2 685.561 131.168 685.849 131.136C686.489 131.056 686.937 130.992 687.177 130.928C687.401 130.864 687.561 130.784 687.657 130.656C687.721 130.576 687.769 130.384 687.769 130.064C687.769 129.232 687.193 128.816 686.073 128.816C685.465 128.816 685.033 128.928 684.761 129.152C684.473 129.376 684.297 129.76 684.233 130.288H682.505ZM687.753 131.856C687.609 131.936 687.449 132 687.273 132.064C687.081 132.128 686.937 132.16 686.825 132.176C686.713 132.192 686.537 132.208 686.297 132.24C686.057 132.272 685.897 132.304 685.833 132.304C685.609 132.336 685.433 132.368 685.305 132.4C685.177 132.432 685.017 132.464 684.825 132.528C684.633 132.592 684.489 132.672 684.393 132.768C684.297 132.864 684.201 132.976 684.137 133.136C684.057 133.296 684.025 133.472 684.025 133.68C684.025 134.08 684.153 134.384 684.409 134.592C684.665 134.816 685.033 134.912 685.513 134.912C686.313 134.912 686.937 134.704 687.385 134.256C687.625 134.016 687.753 133.536 687.753 132.832V131.856ZM695.508 127.744V129.072H693.844V133.424C693.844 133.68 693.844 133.872 693.86 133.968C693.86 134.064 693.892 134.176 693.956 134.304C694.004 134.432 694.1 134.512 694.228 134.544C694.356 134.592 694.548 134.608 694.788 134.608C695.076 134.608 695.316 134.608 695.508 134.576V136.016C695.14 136.064 694.724 136.08 694.276 136.08C693.956 136.08 693.668 136.064 693.428 136.016C693.188 135.968 692.996 135.904 692.836 135.84C692.676 135.776 692.532 135.68 692.436 135.52C692.324 135.36 692.244 135.232 692.18 135.136C692.116 135.04 692.084 134.848 692.052 134.592C692.02 134.336 692.02 134.144 692.02 134.016V133.312V133.216V133.12V133.008V129.072H690.644V127.744H692.02V125.264H693.844V127.744H695.508ZM704.292 132.88C704.164 133.904 703.748 134.704 703.076 135.312C702.388 135.92 701.524 136.208 700.5 136.208C699.252 136.208 698.276 135.824 697.54 135.04C696.804 134.256 696.436 133.232 696.436 131.952C696.436 130.592 696.804 129.504 697.54 128.704C698.276 127.904 699.284 127.488 700.548 127.488C701.604 127.488 702.452 127.76 703.092 128.288C703.732 128.832 704.116 129.568 704.228 130.512H702.42C702.308 130 702.1 129.6 701.78 129.312C701.46 129.04 701.044 128.896 700.564 128.896C699.86 128.896 699.3 129.168 698.9 129.696C698.484 130.224 698.292 130.944 698.292 131.856C698.292 132.784 698.484 133.488 698.868 134C699.252 134.512 699.796 134.768 700.5 134.768C701.044 134.768 701.476 134.608 701.828 134.288C702.18 133.968 702.404 133.488 702.5 132.88H704.292ZM707.518 124.608V128.88C708.126 127.984 708.99 127.536 710.126 127.536C711.022 127.536 711.71 127.792 712.222 128.272C712.718 128.752 712.974 129.472 712.974 130.4V136H711.134V130.992C711.134 130.368 711.022 129.888 710.798 129.552C710.574 129.232 710.158 129.056 709.534 129.056C708.83 129.056 708.318 129.296 707.998 129.744C707.678 130.208 707.518 130.816 707.518 131.568V136H705.71V124.608H707.518ZM722.274 133.424C722.066 134.32 721.618 135.024 720.946 135.52C720.274 136.032 719.458 136.272 718.53 136.272C717.282 136.272 716.29 135.872 715.554 135.072C714.818 134.272 714.466 133.232 714.466 131.968C714.466 130.688 714.834 129.616 715.586 128.768C716.338 127.936 717.298 127.504 718.466 127.504C719.666 127.504 720.626 127.92 721.33 128.752C722.034 129.584 722.386 130.704 722.386 132.128V132.32H716.29C716.306 133.152 716.514 133.808 716.914 134.256C717.298 134.704 717.858 134.928 718.562 134.928C719.058 134.928 719.458 134.816 719.778 134.576C720.098 134.336 720.338 133.952 720.53 133.424H722.274ZM720.562 131.104C720.498 130.416 720.29 129.872 719.906 129.472C719.522 129.072 719.042 128.864 718.45 128.864C717.842 128.864 717.362 129.056 716.994 129.44C716.626 129.824 716.402 130.384 716.322 131.104H720.562ZM731.597 124.608V136H729.885V134.864C729.357 135.776 728.477 136.224 727.245 136.224C726.077 136.224 725.149 135.84 724.461 135.04C723.773 134.256 723.437 133.2 723.437 131.856C723.437 130.544 723.773 129.488 724.445 128.704C725.117 127.92 726.029 127.52 727.181 127.52C728.333 127.52 729.213 127.952 729.805 128.816V124.608H731.597ZM727.516 128.992C726.812 128.992 726.269 129.248 725.869 129.76C725.469 130.272 725.277 130.96 725.277 131.824C725.277 132.736 725.469 133.456 725.885 133.968C726.301 134.496 726.861 134.752 727.581 134.752C728.285 134.752 728.845 134.496 729.245 133.984C729.645 133.472 729.853 132.768 729.853 131.856C729.853 130.96 729.645 130.256 729.229 129.744C728.813 129.248 728.253 128.992 727.516 128.992Z" fill="#343434"/>
<rect width="200" height="70" transform="translate(800 75)" fill="white"/>
<path opacity="0.2" d="M909 94.1125L904.4 98.7125C904.275 98.8297 904.123 98.9148 903.957 98.9606C903.792 99.0063 903.618 99.0112 903.45 98.975L896.2 97.1625C896.068 97.1256 895.944 97.0617 895.837 96.975L889 91.6375L893.075 83.975L899.488 82.1C899.715 82.0347 899.959 82.0524 900.175 82.15L904.5 84.1125H901.913C901.783 84.112 901.654 84.1372 901.534 84.1865C901.414 84.2359 901.305 84.3084 901.212 84.4L896.312 89.2875C896.212 89.3902 896.135 89.513 896.086 89.6477C896.037 89.7825 896.017 89.9261 896.028 90.0691C896.039 90.2121 896.08 90.3512 896.148 90.4772C896.216 90.6032 896.311 90.7132 896.425 90.8L897.1 91.3125C897.793 91.8299 898.635 92.1094 899.5 92.1094C900.365 92.1094 901.207 91.8299 901.9 91.3125L903.5 90.1125L909 94.1125Z" fill="#2872B3"/>
<path d="M914.088 90.225L911 91.7625L907 84.1125L910.125 82.55C910.357 82.4316 910.627 82.4099 910.875 82.4895C911.123 82.5691 911.33 82.7436 911.45 82.975L914.525 88.8625C914.587 88.9804 914.626 89.1095 914.637 89.2423C914.649 89.3751 914.634 89.5089 914.593 89.6359C914.552 89.7628 914.487 89.8804 914.4 89.9815C914.313 90.0827 914.207 90.1655 914.088 90.225V90.225Z" stroke="#2872B3" stroke-width="2" stroke-linecap="round" stroke-linejoin="round"/>
<path d="M889 91.6375L885.913 90.0875C885.794 90.0292 885.688 89.9477 885.601 89.8476C885.514 89.7476 885.449 89.6311 885.408 89.5052C885.367 89.3793 885.352 89.2464 885.363 89.1145C885.375 88.9826 885.413 88.8544 885.475 88.7375L888.55 82.85C888.67 82.6188 888.876 82.4437 889.124 82.3619C889.371 82.2802 889.641 82.2984 889.875 82.4125L893 83.975L889 91.6375Z" stroke="#2872B3" stroke-width="2" stroke-linecap="round" stroke-linejoin="round"/>
<path d="M911 91.7625L909 94.1125L904.4 98.7125C904.275 98.8297 904.123 98.9149 903.957 98.9606C903.792 99.0063 903.618 99.0112 903.45 98.975L896.2 97.1625C896.068 97.1256 895.944 97.0618 895.837 96.975L889 91.6375" stroke="#2872B3" stroke-width="2" stroke-linecap="round" stroke-linejoin="round"/>
<path d="M909 94.1125L903.5 90.1125L901.9 91.3125C901.207 91.8299 900.365 92.1094 899.5 92.1094C898.635 92.1094 897.793 91.8299 897.1 91.3125L896.425 90.8C896.311 90.7132 896.217 90.6032 896.148 90.4772C896.08 90.3512 896.039 90.2121 896.028 90.0691C896.018 89.9261 896.037 89.7825 896.086 89.6477C896.135 89.513 896.213 89.3902 896.313 89.2875L901.213 84.4C901.305 84.3084 901.414 84.2359 901.534 84.1865C901.654 84.1372 901.783 84.112 901.913 84.1125H907" stroke="#2872B3" stroke-width="2" stroke-linecap="round" stroke-linejoin="round"/>
<path d="M893.075 83.975L899.487 82.1C899.715 82.0347 899.959 82.0524 900.175 82.15L904.5 84.1125" stroke="#2872B3" stroke-width="2" stroke-linecap="round" stroke-linejoin="round"/>
<path d="M866.801 124.608H872.193C873.313 124.608 874.241 124.864 874.961 125.376C875.665 125.888 876.033 126.688 876.033 127.776C876.033 128.464 875.857 129.056 875.537 129.536C875.201 130.016 874.737 130.368 874.145 130.576C874.417 130.64 874.657 130.736 874.865 130.864C875.057 130.992 875.217 131.136 875.329 131.28C875.441 131.44 875.537 131.632 875.617 131.856C875.681 132.096 875.729 132.304 875.761 132.48C875.793 132.656 875.809 132.88 875.841 133.168C875.841 133.248 875.857 133.392 875.873 133.6C875.889 133.824 875.905 133.968 875.905 134.032C875.905 134.096 875.921 134.224 875.937 134.384C875.953 134.56 875.969 134.688 875.985 134.752C875.985 134.816 876.001 134.928 876.033 135.056C876.065 135.184 876.081 135.296 876.113 135.36C876.129 135.424 876.161 135.504 876.193 135.6C876.225 135.696 876.257 135.76 876.305 135.824C876.337 135.888 876.385 135.952 876.449 136H874.305C874.273 135.968 874.241 135.92 874.209 135.856C874.177 135.792 874.161 135.728 874.145 135.664C874.113 135.6 874.097 135.536 874.097 135.472C874.081 135.408 874.065 135.328 874.049 135.232C874.033 135.136 874.033 135.04 874.033 134.976L874.001 134.688L873.969 134.4C873.969 134.336 873.953 134.224 873.953 134.064C873.937 133.904 873.937 133.792 873.937 133.728C873.873 132.8 873.681 132.176 873.345 131.824C873.009 131.472 872.369 131.296 871.441 131.296H868.785V136H866.801V124.608ZM868.785 126.24V129.808H871.425C871.809 129.808 872.129 129.792 872.401 129.744C872.657 129.712 872.929 129.632 873.201 129.52C873.473 129.408 873.681 129.216 873.825 128.96C873.969 128.704 874.049 128.384 874.049 127.984C874.049 127.632 873.985 127.328 873.857 127.088C873.729 126.848 873.537 126.672 873.297 126.544C873.057 126.432 872.817 126.352 872.561 126.304C872.305 126.272 872.017 126.24 871.681 126.24H868.785ZM885.235 133.424C885.027 134.32 884.579 135.024 883.907 135.52C883.235 136.032 882.419 136.272 881.491 136.272C880.243 136.272 879.251 135.872 878.515 135.072C877.779 134.272 877.427 133.232 877.427 131.968C877.427 130.688 877.795 129.616 878.547 128.768C879.299 127.936 880.259 127.504 881.427 127.504C882.627 127.504 883.587 127.92 884.291 128.752C884.995 129.584 885.347 130.704 885.347 132.128V132.32H879.251C879.267 133.152 879.475 133.808 879.875 134.256C880.259 134.704 880.819 134.928 881.523 134.928C882.019 134.928 882.419 134.816 882.739 134.576C883.059 134.336 883.299 133.952 883.491 133.424H885.235ZM883.523 131.104C883.459 130.416 883.251 129.872 882.867 129.472C882.483 129.072 882.003 128.864 881.411 128.864C880.803 128.864 880.323 129.056 879.955 129.44C879.587 129.824 879.363 130.384 879.283 131.104H883.523ZM893.277 130.144H891.533C891.421 129.28 890.829 128.832 889.741 128.832C889.261 128.832 888.909 128.928 888.653 129.088C888.397 129.264 888.269 129.504 888.269 129.792C888.269 129.888 888.269 129.984 888.285 130.048C888.301 130.128 888.333 130.192 888.381 130.256C888.429 130.32 888.477 130.368 888.509 130.4C888.541 130.448 888.621 130.496 888.717 130.528C888.813 130.576 888.877 130.608 888.941 130.64C889.005 130.672 889.101 130.704 889.245 130.736C889.373 130.768 889.485 130.8 889.565 130.816C889.645 130.848 889.773 130.88 889.965 130.912C890.141 130.944 890.285 130.976 890.381 130.992C890.797 131.088 891.085 131.168 891.277 131.216C891.469 131.264 891.741 131.36 892.093 131.504C892.445 131.648 892.717 131.792 892.893 131.952C893.053 132.112 893.213 132.32 893.357 132.592C893.501 132.864 893.581 133.168 893.581 133.52C893.581 134.352 893.245 135.024 892.605 135.504C891.949 136 891.069 136.24 889.981 136.24C888.797 136.24 887.901 136 887.277 135.504C886.637 135.024 886.301 134.304 886.269 133.36H888.013C888.109 134.4 888.765 134.912 890.013 134.912C890.541 134.912 890.973 134.816 891.293 134.592C891.613 134.368 891.789 134.08 891.789 133.712C891.789 133.536 891.741 133.376 891.661 133.248C891.581 133.12 891.453 133.024 891.277 132.928C891.085 132.832 890.909 132.768 890.749 132.72C890.589 132.672 890.365 132.608 890.093 132.544L889.997 132.528C889.965 132.528 889.949 132.512 889.917 132.512C889.885 132.512 889.853 132.496 889.821 132.48C888.637 132.192 887.901 131.968 887.581 131.808C886.813 131.456 886.445 130.848 886.445 130C886.445 129.232 886.733 128.624 887.341 128.176C887.933 127.728 888.765 127.504 889.821 127.504C890.829 127.504 891.661 127.728 892.301 128.16C892.941 128.608 893.277 129.264 893.277 130.144ZM898.854 127.504C900.102 127.504 901.11 127.904 901.862 128.688C902.598 129.488 902.982 130.544 902.982 131.872C902.982 133.216 902.598 134.288 901.862 135.072C901.126 135.872 900.118 136.256 898.854 136.256C897.558 136.256 896.534 135.872 895.782 135.072C895.014 134.288 894.646 133.216 894.646 131.872C894.646 130.544 895.014 129.488 895.782 128.688C896.55 127.904 897.574 127.504 898.854 127.504ZM898.822 128.944C898.086 128.944 897.526 129.216 897.11 129.728C896.694 130.256 896.486 130.976 896.486 131.872C896.486 132.8 896.694 133.536 897.11 134.048C897.526 134.576 898.102 134.832 898.838 134.832C899.542 134.832 900.102 134.576 900.518 134.048C900.934 133.52 901.142 132.784 901.142 131.856C901.142 130.96 900.934 130.24 900.518 129.728C900.102 129.216 899.542 128.944 898.822 128.944ZM906.387 124.608V136H904.579V124.608H906.387ZM907.542 127.744H909.526L911.638 134.096L913.67 127.744H915.558L912.598 136.016H910.55L907.542 127.744ZM924.063 133.424C923.855 134.32 923.407 135.024 922.735 135.52C922.063 136.032 921.247 136.272 920.319 136.272C919.071 136.272 918.079 135.872 917.343 135.072C916.607 134.272 916.255 133.232 916.255 131.968C916.255 130.688 916.623 129.616 917.375 128.768C918.127 127.936 919.087 127.504 920.255 127.504C921.455 127.504 922.415 127.92 923.119 128.752C923.823 129.584 924.175 130.704 924.175 132.128V132.32H918.079C918.095 133.152 918.303 133.808 918.703 134.256C919.087 134.704 919.647 134.928 920.351 134.928C920.847 134.928 921.247 134.816 921.567 134.576C921.887 134.336 922.127 133.952 922.319 133.424H924.063ZM922.351 131.104C922.287 130.416 922.079 129.872 921.695 129.472C921.311 129.072 920.831 128.864 920.239 128.864C919.631 128.864 919.151 129.056 918.783 129.44C918.415 129.824 918.191 130.384 918.111 131.104H922.351ZM933.386 124.608V136H931.674V134.864C931.146 135.776 930.266 136.224 929.034 136.224C927.866 136.224 926.938 135.84 926.25 135.04C925.562 134.256 925.226 133.2 925.226 131.856C925.226 130.544 925.562 129.488 926.234 128.704C926.906 127.92 927.818 127.52 928.97 127.52C930.122 127.52 931.002 127.952 931.594 128.816V124.608H933.386ZM929.306 128.992C928.602 128.992 928.058 129.248 927.658 129.76C927.258 130.272 927.066 130.96 927.066 131.824C927.066 132.736 927.258 133.456 927.674 133.968C928.09 134.496 928.65 134.752 929.37 134.752C930.074 134.752 930.634 134.496 931.034 133.984C931.434 133.472 931.642 132.768 931.642 131.856C931.642 130.96 931.434 130.256 931.018 129.744C930.602 129.248 930.042 128.992 929.306 128.992Z" fill="#343434"/>
</svg>
